<svg width="50" height="51" viewBox="0 0 50 51" fill="none" xmlns="http://www.w3.org/2000/svg">
<path d="M14.7727 0.5C6.62782 0.5 0 7.12782 0 15.2727V35.7273C0 43.8721 6.62782 50.5 14.7727 50.5H35.2273C43.3722 50.5 50 43.8721 50 35.7273V15.2727C50 7.12782 43.3722 0.5 35.2273 0.5H14.7727ZM14.7727 2.77272H35.2273C42.1437 2.77272 47.7273 8.35627 47.7273 15.2727V35.7273C47.7273 42.6437 42.1437 48.2273 35.2273 48.2273H14.7727C7.85627 48.2273 2.27273 42.6437 2.27273 35.7273V15.2727C2.27273 8.35627 7.85627 2.77272 14.7727 2.77272ZM38.6364 9.59091C38.0336 9.59091 37.4555 9.83031 37.0293 10.2566C36.6031 10.6828 36.3636 11.2609 36.3636 11.8636C36.3636 12.4664 36.6031 13.0445 37.0293 13.4707C37.4555 13.897 38.0336 14.1364 38.6364 14.1364C39.2391 14.1364 39.8172 13.897 40.2434 13.4707C40.6697 13.0445 40.9091 12.4664 40.9091 11.8636C40.9091 11.2609 40.6697 10.6828 40.2434 10.2566C39.8172 9.83031 39.2391 9.59091 38.6364 9.59091ZM25 13C18.1099 13 12.5 18.6099 12.5 25.5C12.5 32.3901 18.1099 38 25 38C31.8901 38 37.5 32.3901 37.5 25.5C37.5 18.6099 31.8901 13 25 13ZM25 15.2727C30.6618 15.2727 35.2273 19.8381 35.2273 25.5C35.2273 31.1618 30.6618 35.7273 25 35.7273C19.3382 35.7273 14.7727 31.1618 14.7727 25.5C14.7727 19.8381 19.3382 15.2727 25 15.2727Z" fill="white"/>
</svg>
