<svg width="50" height="50" viewBox="0 0 50 50" fill="none" xmlns="http://www.w3.org/2000/svg">
<g clip-path="url(#clip0_175_1649)">
<path d="M35.354 0.175332C38.014 0.300832 39.8305 0.725332 41.4185 1.34933C43.062 1.98983 44.455 2.84933 45.841 4.24033C47.227 5.63133 48.0805 7.02533 48.7165 8.67133C49.332 10.2628 49.749 12.0808 49.8665 14.7423C49.984 17.4038 50.01 18.2593 49.997 25.0483C49.984 31.8373 49.954 32.6883 49.825 35.3553C49.698 38.0148 49.275 39.8308 48.651 41.4193C48.0095 43.0628 47.151 44.4553 45.7595 45.8418C44.368 47.2283 42.975 48.0798 41.325 48.7168C39.735 49.3313 37.9165 49.7503 35.2555 49.8668C32.5945 49.9833 31.738 50.0103 24.951 49.9973C18.164 49.9843 17.3095 49.9543 14.643 49.8278C11.9765 49.7013 10.17 49.2753 8.58096 48.6543C6.93746 48.0113 5.54396 47.1543 4.15845 45.7623C2.77296 44.3703 1.91996 42.9753 1.28445 41.3283C0.668457 39.7383 0.249954 37.9198 0.134457 35.2608C0.0179558 32.5923 -0.00954437 31.7403 0.00345612 24.9523C0.0164566 18.1643 0.0469551 17.3133 0.173454 14.6473C0.299953 11.9813 0.723457 10.1708 1.34695 8.58133C1.98946 6.93783 2.84696 5.54633 4.23796 4.15883C5.62896 2.77133 7.02496 1.91883 8.67146 1.28483C10.2625 0.669332 12.08 0.249832 14.741 0.134832C17.402 0.0198323 18.2585 -0.00966769 25.048 0.00333231C31.8375 0.0163323 32.6875 0.0453323 35.354 0.175332ZM35.062 45.3693C37.4995 45.2633 38.823 44.8583 39.705 44.5193C40.873 44.0693 41.705 43.5253 42.584 42.6548C43.463 41.7843 44.003 40.9493 44.459 39.7838C44.8015 38.9018 45.214 37.5798 45.328 35.1423C45.452 32.5078 45.478 31.7168 45.4925 25.0423C45.507 18.3678 45.4815 17.5778 45.366 14.9423C45.262 12.5068 44.8545 11.1818 44.516 10.3003C44.066 9.13083 43.524 8.30033 42.6515 7.42183C41.779 6.54333 40.9465 6.00233 39.78 5.54633C38.899 5.20233 37.577 4.79333 35.1405 4.67733C32.504 4.55233 31.714 4.52733 25.0405 4.51283C18.367 4.49833 17.575 4.52333 14.9375 4.63933C12.502 4.74533 11.1765 5.14883 10.296 5.48933C9.12746 5.93933 8.29596 6.47983 7.41745 7.35383C6.53896 8.22783 5.99746 9.05733 5.54146 10.2263C5.19696 11.1048 4.78796 12.4263 4.67296 14.8643C4.54746 17.5008 4.51896 18.2913 4.50696 24.9643C4.49496 31.6373 4.51846 32.4298 4.63396 35.0643C4.74046 37.5018 5.14445 38.8258 5.48396 39.7088C5.93396 40.8763 6.47646 41.7088 7.34946 42.5868C8.22246 43.4648 9.05396 44.0058 10.221 44.4618C11.101 44.8053 12.4245 45.2153 14.859 45.3313C17.4955 45.4553 18.2855 45.4813 24.9615 45.4958C31.6375 45.5103 32.425 45.4833 35.0615 45.3693M14.6815 11.6388C14.6805 12.2322 14.5035 12.812 14.173 13.3048C13.8425 13.7976 13.3733 14.1814 12.8247 14.4075C12.276 14.6336 11.6727 14.6919 11.0909 14.5751C10.5091 14.4583 9.97507 14.1716 9.55626 13.7513C9.13744 13.3309 8.85268 12.7958 8.73801 12.2136C8.62334 11.6314 8.6839 11.0282 8.91203 10.4805C9.14016 9.93269 9.52561 9.46486 10.0196 9.13616C10.5137 8.80746 11.0941 8.63265 11.6875 8.63383C12.4829 8.63542 13.2452 8.95288 13.8067 9.5164C14.3681 10.0799 14.6828 10.8434 14.6815 11.6388ZM37.8365 25.0253C37.8225 32.1153 32.0645 37.8498 24.976 37.8363C17.8875 37.8228 12.149 32.0653 12.1625 24.9753C12.176 17.8853 17.9355 12.1493 25.025 12.1633C32.1145 12.1773 37.85 17.9363 37.8365 25.0253ZM33.3335 25.0163C33.3367 23.3681 32.8512 21.756 31.9382 20.3837C31.0252 19.0115 29.7258 17.9408 28.2043 17.307C26.6828 16.6733 25.0075 16.5049 23.3904 16.8233C21.7732 17.1416 20.2867 17.9324 19.119 19.0955C17.9512 20.2587 17.1546 21.742 16.8298 23.3579C16.5051 24.9738 16.6668 26.6497 17.2945 28.1737C17.9222 29.6977 18.9878 31.0013 20.3564 31.9197C21.725 32.8381 23.3353 33.3301 24.9835 33.3333C26.0779 33.3356 27.162 33.1223 28.174 32.7056C29.1859 32.2888 30.1059 31.6768 30.8813 30.9045C31.6567 30.1321 32.2723 29.2146 32.6931 28.2043C33.1138 27.194 33.3314 26.1107 33.3335 25.0163Z" fill="black"/>
</g>
<defs>
<clipPath id="clip0_175_1649">
<rect width="50" height="50" fill="white" transform="matrix(-1 0 0 1 50 0)"/>
</clipPath>
</defs>
</svg>
