<svg width="100" height="110" viewBox="0 0 100 110" fill="none" xmlns="http://www.w3.org/2000/svg">
<path d="M48.3525 0.0937424C48.3003 0.150879 48.2539 0.219444 48.2539 0.242302C48.2539 0.270874 48.0857 0.62513 47.8826 1.04224C47.6796 1.45363 47.3315 2.16213 47.1111 2.61924C45.6724 5.56755 43.8567 9.05296 43.0793 10.35C42.9923 10.4986 42.9169 10.63 42.9169 10.6414C42.9169 10.6528 42.4934 11.3842 42.3484 11.6185C42.3078 11.6813 41.9945 12.1955 41.6522 12.7612C40.7241 14.2868 39.7205 15.7952 38.7691 17.1151C38.5951 17.3608 38.4036 17.6236 38.3514 17.7036C38.2412 17.8579 37.9337 18.2807 37.168 19.3035C36.1586 20.6634 34.5401 22.6861 33.1479 24.3259C32.7592 24.7773 32.3357 25.2801 32.1965 25.4401C31.628 26.1086 31.2567 26.5314 29.9224 28.017C29.7136 28.2513 29.3771 28.6284 29.1683 28.857C28.391 29.7312 27.0393 31.2282 26.7608 31.531C26.5984 31.7024 26.2852 32.051 26.0647 32.3024C25.8443 32.5538 25.647 32.7709 25.6296 32.788C25.6006 32.8166 23.8661 34.7764 23.2802 35.445C22.41 36.4334 20.5769 38.6504 20.2752 39.0732C20.223 39.1532 20.1012 39.3075 20.0142 39.4218C18.3087 41.6616 16.6669 44.2385 15.5183 46.4726C15.031 47.4268 14.5495 48.4153 14.5495 48.4724C14.5495 48.4838 14.4741 48.6609 14.3871 48.8552C14.2305 49.198 13.9984 49.758 13.6562 50.6379C13.4938 51.0493 12.9368 52.6892 12.8092 53.1291C12.7686 53.272 12.7164 53.4491 12.6932 53.5291C12.6294 53.7348 12.4264 54.5004 12.2871 55.1004C12.2175 55.3804 12.1421 55.7175 12.1131 55.8432C11.9565 56.4888 11.649 58.1344 11.533 58.9572C11.2487 60.8827 11.1385 62.1969 11.0747 64.2824C10.9471 68.5849 11.3764 72.6074 12.3451 76.1843C12.6004 77.1156 12.7338 77.5613 12.815 77.7099C12.844 77.767 12.8672 77.847 12.8672 77.8927C12.8672 77.9327 12.9194 78.0927 12.9775 78.2469C13.0413 78.4012 13.1457 78.6812 13.2153 78.8698C13.4125 79.4068 13.5112 79.6354 14.0855 80.9039C14.4103 81.6124 15.0484 82.818 15.4197 83.4122C16.0868 84.4921 16.3131 84.8178 17.16 85.8977C18.3029 87.3604 20.9307 89.8688 22.6943 91.183C22.8451 91.2915 23.0714 91.4572 23.1932 91.5544C23.3208 91.6458 23.5238 91.8001 23.6399 91.8915C25.0031 92.9085 27.3236 94.2627 28.7796 94.8912C28.9305 94.9598 29.1625 95.0626 29.3017 95.1198C29.4352 95.1826 30.0037 95.4112 30.5606 95.6283C31.8832 96.1482 31.889 96.154 31.9238 96.2911C31.9412 96.3597 31.9818 96.5025 32.0108 96.6111C32.0398 96.7196 32.1153 96.9882 32.1849 97.211C32.2487 97.4281 32.3299 97.7138 32.3705 97.8395C32.6025 98.6566 33.0434 99.8679 33.2929 100.371C33.757 101.314 34.4937 102.005 35.6365 102.571C36.118 102.805 36.7851 103.056 37.2782 103.188C37.7887 103.325 37.9279 103.359 38.305 103.433C39.7843 103.725 41.8669 103.953 44.9473 104.165C46.2525 104.256 51.8042 104.25 52.9528 104.159C54.9135 104.005 56.1898 103.873 57.3906 103.696C57.582 103.668 57.9359 103.616 58.1738 103.582C59.363 103.416 60.7552 102.999 61.7472 102.519C63.1453 101.845 63.8414 101.108 64.3229 99.7822C64.613 98.9823 64.9204 98.0052 65.1351 97.1824C65.1757 97.0396 65.2279 96.8625 65.2511 96.7825C65.2743 96.7025 65.3265 96.5311 65.3613 96.3939C65.4019 96.2568 65.4599 96.1368 65.5005 96.1254C65.837 96.0225 66.684 95.7083 66.9798 95.5769C67.1771 95.4854 67.3627 95.4112 67.3917 95.4112C67.4149 95.4112 67.5135 95.3769 67.6063 95.3312C67.6992 95.2855 67.908 95.194 68.0646 95.1255C69.1436 94.6569 69.4569 94.5027 70.182 94.1084C71.3074 93.4913 72.8795 92.4914 73.8367 91.7829C75.3334 90.6744 76.8475 89.4003 77.7524 88.5032L78.2165 88.0404H79.0693C81.9292 88.0404 84.8704 87.589 87.0922 86.8062C87.3184 86.7262 87.6143 86.6234 87.7593 86.5777C88.0262 86.4919 88.061 86.4748 88.5135 86.2805C88.6585 86.2234 88.8905 86.1205 89.0356 86.0634C90.3872 85.4977 92.4118 84.275 93.7867 83.1951C95.0049 82.2409 96.1535 81.1153 96.8786 80.1611C98.4913 78.0527 99.4369 76.0357 99.8198 73.8988C100.069 72.4817 100.063 71.5732 99.7792 70.0419C99.6922 69.5791 99.3847 68.7049 99.1411 68.2135C98.3927 66.7165 96.8728 65.1967 95.0977 64.1853C94.4422 63.8082 93.1021 63.2197 92.3712 62.9854C90.5032 62.3855 88.8093 62.0769 86.7615 61.9512L86.1408 61.9169L86.106 61.5341C86.0364 60.7056 85.7173 58.3744 85.6129 57.9001C85.5839 57.7744 85.5317 57.5059 85.4969 57.3002C85.4621 57.0945 85.4099 56.826 85.3809 56.7002C85.3519 56.5745 85.2997 56.3289 85.2649 56.1574C85.1952 55.8089 85.0038 55.0033 84.911 54.6433C84.8762 54.5176 84.824 54.3119 84.7892 54.1862C84.7544 54.0605 84.708 53.8948 84.6847 53.8148C84.6615 53.7348 84.6093 53.5577 84.5687 53.4148C84.5281 53.272 84.4469 53.0034 84.3831 52.8149C84.3251 52.6263 84.2555 52.3921 84.2265 52.3006C83.9944 51.5407 83.2229 49.5409 82.8516 48.7409C82.7762 48.5752 82.7124 48.4267 82.7124 48.4095C82.7124 48.3124 81.3607 45.6726 81.0011 45.0727C79.9163 43.2443 79.3767 42.3929 78.5994 41.3016C78.0831 40.5759 77.8975 40.3245 77.2594 39.4732C77.1143 39.2846 76.9345 39.0446 76.8533 38.9361C76.598 38.599 75.5016 37.2334 75.258 36.9591C75.1303 36.8106 74.8809 36.5191 74.7069 36.302C74.5328 36.0906 74.2312 35.7306 74.0339 35.5078C72.6881 33.9537 71.7657 32.8966 70.9072 31.9367C70.3677 31.3253 69.8166 30.7082 69.6889 30.5597C69.4801 30.3197 68.6389 29.3826 67.6643 28.3027C67.4613 28.0799 67.2119 27.7999 67.1074 27.6742C66.9972 27.5485 66.7884 27.3142 66.6434 27.16C66.4983 27 66.3069 26.7829 66.2141 26.6743C66.1213 26.5657 65.953 26.3715 65.837 26.24C65.721 26.1143 65.4309 25.7829 65.1931 25.503C64.9552 25.2287 64.6536 24.8802 64.526 24.7316C64.1547 24.3031 63.7892 23.8688 63.5978 23.6403C63.505 23.5203 63.1627 23.1146 62.8436 22.7318C62.5246 22.3547 62.1997 21.9604 62.1185 21.8576C62.0373 21.7547 61.724 21.3662 61.4166 20.9891C59.8677 19.0692 57.5298 15.8409 56.3 13.904C55.5749 12.7669 55.4066 12.4927 55.0528 11.9041C54.8439 11.5556 54.5713 11.0928 54.4437 10.8757C54.316 10.6528 54.1246 10.3214 54.0202 10.1329C53.91 9.94431 53.7301 9.62434 53.6257 9.41865C53.5155 9.21295 53.3182 8.85298 53.1906 8.61871C52.8426 7.9902 50.8296 4.02483 49.9942 2.31069C48.8108 -0.106239 48.8862 0.0194626 48.6542 0.00232697C48.5149 -0.00910187 48.4221 0.0194626 48.3525 0.0937424ZM49.1705 7.076C50.2843 9.21867 51.7519 11.9213 51.9086 12.1327C51.9376 12.1613 52.0246 12.3155 52.1116 12.4755C52.4829 13.1383 53.3298 14.5154 53.8693 15.3324C54.0782 15.6467 54.2754 15.9552 54.3102 16.0181C54.345 16.0809 54.6815 16.5837 55.0586 17.1323C57.263 20.3663 59.6066 23.3603 62.6986 26.9028C63.8472 28.217 64.1025 28.5084 64.3867 28.817C64.5376 28.9712 64.8218 29.2912 65.0248 29.5255C65.605 30.1826 65.9762 30.5997 66.7768 31.4796C67.1887 31.931 67.763 32.5709 68.053 32.8966C68.3489 33.2223 68.7201 33.6394 68.8768 33.8165C69.0392 33.9937 69.3873 34.3936 69.6599 34.7022C69.9326 35.0164 70.2574 35.3878 70.3909 35.5307C70.5185 35.6735 70.6983 35.8792 70.7969 35.9935C70.8898 36.1078 71.203 36.4677 71.4873 36.7877C71.7773 37.1134 72.0732 37.4619 72.1544 37.5648C72.2356 37.6619 72.7287 38.2676 73.2566 38.9075C74.2486 40.1131 74.295 40.1703 74.9679 41.0502C75.7917 42.1301 76.8011 43.5643 77.3174 44.387C77.4218 44.5584 77.6364 44.9013 77.7931 45.147C77.9439 45.3927 78.0715 45.6098 78.0715 45.6269C78.0715 45.6441 78.1179 45.7241 78.1759 45.8041C78.4254 46.1583 79.5218 48.221 79.9453 49.1295C80.3049 49.8951 80.3745 50.0608 80.6762 50.7979C81.3027 52.3463 81.6624 53.432 82.0801 55.0147C82.2077 55.5061 82.2367 55.6318 82.4455 56.6431C82.6892 57.843 82.7298 58.0944 82.9734 59.8714C82.9966 60.0142 83.0314 60.3456 83.0604 60.6142C83.0894 60.8827 83.1243 61.1456 83.1475 61.197C83.2171 61.3627 83.0372 61.317 82.9038 61.1342C82.6486 60.8027 81.3723 59.9628 80.566 59.5971C79.2201 58.9915 78.2281 58.6315 76.8823 58.2658C76.7547 58.2315 76.5864 58.1801 76.5052 58.1516C75.9831 57.9859 73.332 57.403 72.0674 57.1802C71.8759 57.1459 71.6033 57.1002 71.4583 57.0716C71.0232 56.9917 69.5845 56.7917 69.3177 56.7688L69.1204 56.7574L69.3351 56.506C69.6947 56.0832 70.3909 55.0204 70.7215 54.3862C71.0754 53.7062 71.4815 52.7235 71.8063 51.7578C71.9339 51.3979 72.137 50.7922 72.2704 50.4151C72.5315 49.6837 72.5489 49.438 72.3574 49.1523C72.0152 48.6324 71.0348 48.5467 70.24 48.9638C69.7469 49.2209 69.6367 49.3695 69.4047 50.0437C68.7898 51.8664 68.3895 52.7749 67.6875 53.9233C66.7884 55.4146 65.4251 56.9802 63.8878 58.3058C63.4121 58.7115 62.368 59.5457 62.1417 59.7C62.0721 59.7457 61.7704 59.9571 61.4688 60.1685C60.9119 60.5571 59.6472 61.357 59.5892 61.357C59.5718 61.357 59.4848 61.4027 59.4036 61.4655C59.3166 61.5227 59.1193 61.6427 58.9569 61.7227C58.8003 61.8084 58.5798 61.9284 58.4696 61.9912C57.7561 62.4083 55.453 63.4711 54.287 63.9282C54.142 63.9853 53.8171 64.1167 53.5619 64.2139C52.5815 64.6024 50.2843 65.3795 49.5011 65.5852C49.4083 65.6138 49.0544 65.7166 48.718 65.8137C47.7086 66.1109 47.4997 66.1737 46.6006 66.4137C46.0031 66.5737 44.9299 66.8422 44.6282 66.9051C44.4716 66.9394 44.2453 66.9908 44.1351 67.0136C43.497 67.1508 41.194 67.5964 40.2774 67.7507C38.9663 67.9793 38.5023 68.0764 38.0556 68.2192C37.6553 68.3507 37.8583 68.3621 35.4045 68.0993C34.105 67.9621 33.7512 67.9278 33.2987 67.8936C32.9854 67.8707 32.823 67.8307 32.8404 67.7907C32.852 67.7564 32.9216 67.7221 33.0028 67.7107C33.0782 67.6993 33.3625 67.6193 33.6351 67.5336C33.9078 67.4422 34.4821 67.265 34.9114 67.1279C35.3407 66.9965 35.7467 66.8651 35.8105 66.8422C35.8744 66.8137 35.9788 66.7794 36.0426 66.7679C36.3907 66.6765 39.5 65.5681 40.1904 65.2881C40.2716 65.2538 40.3934 65.2024 40.4688 65.1795C40.7183 65.0824 40.9155 65.0024 41.0141 64.951C41.0721 64.9224 41.1418 64.8995 41.1766 64.8995C41.2114 64.8995 41.3622 64.8424 41.513 64.7795C41.9771 64.5739 42.1221 64.511 42.4528 64.3853C42.6268 64.3167 42.9691 64.1739 43.2069 64.0596C43.4448 63.951 43.758 63.8139 43.9031 63.7568C44.5586 63.4939 46.9718 62.3283 47.8478 61.8541C48.776 61.3456 48.9036 61.2713 49.826 60.7228C51.4271 59.78 53.4227 58.4087 55.4066 56.9002C57.3152 55.4489 59.3978 53.2834 60.7901 51.3007C61.3818 50.4608 62.2693 48.8838 62.5188 48.2153C62.5594 48.1067 62.6232 47.9524 62.6522 47.8724C62.687 47.7925 62.7334 47.6782 62.7624 47.6153C62.8842 47.3239 63.1627 46.4269 63.2671 45.9869C63.6152 44.5756 63.6558 44.2099 63.65 42.6443C63.6442 41.233 63.563 40.4217 63.3309 39.5017C63.2961 39.376 63.2497 39.1818 63.2207 39.0732C63.1279 38.6847 63.0293 38.3476 62.803 37.6733C62.5826 37.0105 62.513 36.8163 62.4028 36.6049C62.3737 36.5477 62.3505 36.4791 62.3505 36.4449C62.3505 36.4163 62.2751 36.2277 62.1881 36.0335C62.0953 35.8335 61.9851 35.5821 61.9445 35.4735C61.6022 34.6107 60.1345 31.9424 59.2528 30.5882C57.9533 28.5941 57.0019 27.2514 55.2384 24.9373C54.6699 24.1888 54.1478 23.5031 54.084 23.4174C53.8403 23.1032 52.5757 21.549 52.3785 21.3262C52.2624 21.2005 52.0246 20.9205 51.8506 20.7091C50.2843 18.795 48.9906 17.3608 48.7064 17.2123C48.4743 17.0923 48.1205 17.1094 47.9464 17.2523C47.7666 17.3837 47.4765 17.9722 47.4185 18.3036C47.3953 18.4293 47.3547 18.7893 47.3257 19.1035C47.2967 19.4178 47.2445 19.8406 47.2097 20.0463C47.1749 20.252 47.1227 20.5605 47.0937 20.7319C47.0647 20.9034 47.0183 21.1719 46.9835 21.3319C46.8964 21.7947 46.8036 22.2861 46.7514 22.5604C46.6644 23.0175 46.2177 24.9716 46.0669 25.5315C45.9857 25.8287 45.8986 26.1715 45.8696 26.2858C45.771 26.6857 45.7072 26.9314 45.655 27.1314C45.6202 27.24 45.5564 27.4856 45.5042 27.6742C45.452 27.8628 45.3881 28.0799 45.3591 28.1599C45.3301 28.2399 45.2489 28.497 45.1793 28.7313C45.0343 29.1941 44.3324 31.2453 44.1409 31.7596C44.0249 32.0795 43.7987 32.6738 43.5028 33.4566C43.0793 34.5879 42.3136 36.382 41.7045 37.6733C41.0257 39.1018 39.5348 41.9187 39.1926 42.3986C39.1346 42.4786 39.0882 42.5586 39.0882 42.5758C39.0882 42.6558 37.8177 44.6727 37.023 45.8555C35.9614 47.4382 34.7431 49.0438 33.4843 50.5294C32.9796 51.1293 32.1675 52.0835 31.6918 52.6435C30.4735 54.0833 29.8238 54.9518 29.0233 56.2146C28.5824 56.9059 28.0951 57.8887 27.7818 58.7001C27.7064 58.8886 27.631 59.0943 27.602 59.1572C27.5788 59.22 27.5266 59.3857 27.486 59.5286C27.4454 59.6714 27.3932 59.8485 27.3642 59.9285C27.1959 60.4142 27.0277 61.7341 27.0683 62.2141C27.0915 62.4997 27.2597 62.6883 27.4802 62.6883C27.6078 62.6883 27.7528 62.614 27.9907 62.4255C28.8608 61.7284 30.2589 60.9285 31.2277 60.5628C31.4191 60.4885 31.628 60.4085 31.6918 60.3799C32.2777 60.1285 34.4009 59.5571 36.1296 59.1915C40.26 58.3058 42.5514 57.5459 44.5412 56.3974C45.5042 55.8432 45.7362 55.5118 45.3533 55.2318C45.2141 55.1347 45.0865 55.1232 43.8277 55.129C41.4086 55.129 38.9489 55.3404 37.1274 55.7003C35.9672 55.9289 34.3835 56.3803 33.699 56.6831C33.5539 56.746 33.3393 56.8374 33.2291 56.8831C32.6258 57.1402 31.5119 57.7287 31.3089 57.9059C31.2277 57.9801 31.0827 58.0144 31.0827 57.963C31.0827 57.9059 31.5061 57.2145 31.8716 56.6717C32.2197 56.1574 32.5561 55.7118 33.3451 54.7004C33.5771 54.4033 33.931 53.9805 34.1862 53.6948C34.3139 53.552 34.6677 53.1577 34.9694 52.8149C35.271 52.472 35.6655 52.0321 35.8396 51.8435C36.205 51.4436 37.2898 50.198 37.5509 49.8723C37.6495 49.7523 37.9105 49.438 38.1426 49.1752L38.5545 48.6895L39.1868 48.621C39.529 48.581 40.0511 48.5124 40.3354 48.4667C40.6255 48.421 41.0025 48.3581 41.1766 48.3295C41.3506 48.301 41.7683 48.2267 42.1047 48.1581C42.4412 48.0896 42.7777 48.021 42.8589 48.0039C43.1199 47.9582 43.555 47.861 44.1815 47.701C44.2975 47.6725 44.5644 47.6096 44.7732 47.5582C44.9821 47.5068 45.3475 47.4153 45.5854 47.3525C45.8232 47.2896 46.1017 47.2154 46.1945 47.1925C46.4672 47.1182 48.5962 46.4154 48.95 46.2726C49.1241 46.204 49.3619 46.1126 49.4721 46.0612C49.5823 46.0155 49.768 45.9355 49.8782 45.884C51.021 45.3984 52.013 44.827 52.8368 44.1813C54.0608 43.2214 54.4785 42.3129 53.7707 42.1415C53.6489 42.1129 52.7613 42.4044 51.9666 42.7357C51.7752 42.8157 50.76 43.1471 50.2263 43.3014C49.9884 43.37 49.7274 43.45 49.6462 43.4728C49.4837 43.5243 49.3155 43.5643 48.3293 43.8157C47.9638 43.9014 46.9022 44.1471 46.2989 44.2785C46.1597 44.307 45.9393 44.3528 45.8058 44.387C45.6666 44.4156 45.1155 44.5299 44.5702 44.6442C43.6884 44.827 43.0039 44.9756 42.3078 45.1298C42.1801 45.1584 41.8785 45.227 41.6406 45.2784C41.4028 45.3241 41.1127 45.3869 40.9967 45.4098C40.8865 45.4327 40.7589 45.4727 40.7241 45.4955C40.6197 45.5584 40.579 45.4155 40.6719 45.3127C40.7415 45.2327 41.0953 44.6556 41.4666 44.0156C41.5188 43.9185 41.6522 43.7014 41.7567 43.53C42.36 42.5358 43.6014 40.1817 44.0945 39.1018C44.2395 38.7875 44.4368 38.359 44.5354 38.1419C44.634 37.9305 44.7152 37.7419 44.7152 37.7305C44.7152 37.719 44.7964 37.5362 44.8893 37.3305C44.9879 37.1248 45.0981 36.8505 45.1387 36.7248C45.2199 36.4677 45.1155 36.5134 46.3627 36.2106C48.5962 35.6678 50.4989 34.8507 51.7055 33.9079C52.6453 33.1652 53.3356 32.3195 53.6373 31.5139C53.8055 31.0796 53.7997 30.9539 53.6025 30.7711C53.4053 30.5825 53.2312 30.5768 52.918 30.7482C52.2973 31.0796 50.7832 31.8224 50.3423 32.0167C50.0696 32.1367 49.7448 32.2795 49.6171 32.3309C49.4895 32.3881 49.0718 32.5538 48.689 32.7023C48.3061 32.8509 47.9406 32.988 47.8768 33.0166C47.813 33.0395 47.5404 33.1423 47.2677 33.2451C46.9951 33.3423 46.6992 33.4623 46.6064 33.508C46.4149 33.6051 46.2757 33.5366 46.3859 33.3994C46.4265 33.3537 46.4904 33.2223 46.5368 33.0966C46.5832 32.9766 46.7166 32.6166 46.8326 32.3024C47.2909 31.0568 47.8478 29.3598 48.1901 28.1313C48.2887 27.7828 48.3931 27.4228 48.4221 27.3314C48.5091 27.0685 48.8688 25.623 49.0022 24.9887C49.0718 24.6745 49.1531 24.3145 49.1821 24.1888C49.2285 23.966 49.3155 23.526 49.4141 23.0175C49.4431 22.8746 49.4837 22.6404 49.5011 22.4861C49.5243 22.309 49.5649 22.2175 49.6229 22.2175C49.6694 22.2175 49.7042 22.2404 49.7042 22.269C49.7042 22.2975 49.9768 22.6404 50.3075 23.0346C51.5547 24.5145 52.1174 25.223 53.4285 26.9657C53.8635 27.5428 54.2754 28.0799 54.3334 28.1599C54.5365 28.417 56.3696 31.1082 56.6771 31.5996C57.8547 33.4794 58.342 34.3308 58.9801 35.6164C60.0881 37.839 60.4942 39.0275 60.8365 41.033C60.9177 41.513 60.9235 43.5185 60.8423 44.0328C60.7088 44.8898 60.4768 45.8098 60.2099 46.5583C60.0301 47.0611 59.4848 48.3067 59.3978 48.4095C59.3688 48.4438 59.2586 48.6267 59.1541 48.8152C59.0497 49.0038 58.7539 49.478 58.487 49.8723C57.3094 51.6207 55.9635 53.0491 53.8519 54.7918C52.8774 55.5975 50.8064 57.0602 49.7622 57.6773C49.652 57.7459 49.3271 57.9459 49.0428 58.123C48.7644 58.3001 48.5207 58.443 48.5033 58.443C48.4859 58.443 48.4047 58.4887 48.3235 58.5458C47.7608 58.9343 44.7906 60.4542 42.9517 61.2999C42.1163 61.6827 39.471 62.7626 39.0302 62.8997C38.9489 62.9283 38.6647 63.0254 38.392 63.1283C37.313 63.5225 35.271 64.2025 34.2733 64.4996C33.9368 64.5967 33.6003 64.6996 33.5191 64.7281C33.4379 64.7567 33.1014 64.8595 32.765 64.9567C32.4285 65.0538 32.0921 65.1567 32.0108 65.1795C31.9296 65.2081 31.7498 65.2595 31.6048 65.2995C31.4597 65.3395 31.2799 65.3909 31.1987 65.4138C31.1175 65.4366 30.9376 65.4881 30.7926 65.5281C30.6476 65.5681 30.4677 65.6195 30.3865 65.648C30.1255 65.7337 27.9965 66.3166 27.0625 66.5508C26.0937 66.7965 25.9023 66.8194 25.502 66.7279C25.3628 66.6994 24.9393 66.6194 24.5564 66.5565C24.1736 66.488 23.7559 66.4137 23.6283 66.3851C23.5006 66.3566 23.083 66.2651 22.7001 66.1794C20.6581 65.7395 19.3355 65.3224 18.0476 64.7281C17.1252 64.2996 16.3479 63.6996 16.3479 63.4082C16.3479 62.8711 17.5255 62.0484 19.3064 61.3456C19.7415 61.1741 20.9656 60.7628 21.3252 60.6656C21.4238 60.6371 21.6095 60.5856 21.7313 60.5513C21.8473 60.5171 22.0388 60.4714 22.149 60.4428C22.2592 60.4142 22.6131 60.3285 22.9321 60.2485C23.2512 60.1685 23.5412 60.1 23.5819 60.1C23.6225 60.1 23.8023 60.0428 23.9879 59.9743C24.5854 59.7571 25.1423 59.1058 25.2526 58.4887C25.328 58.1001 25.1075 57.6773 24.7305 57.4888C24.365 57.3002 22.8161 57.5116 21.1338 57.9859C20.8321 58.0716 20.5189 58.1573 20.3216 58.2087C20.049 58.283 18.5407 58.7801 18.3783 58.8543C18.2971 58.8886 18.1752 58.9401 18.1056 58.9629C18.0302 58.9915 17.9142 59.0372 17.8446 59.0658C17.7692 59.0886 17.3225 59.3 16.841 59.5286C15.8316 60.0085 14.9614 60.5456 14.4799 60.997C14.2943 61.1741 14.1261 61.2999 14.1087 61.2827C14.0855 61.2656 14.1029 61.1684 14.1377 61.0656C14.1725 60.9627 14.2015 60.7799 14.2015 60.6542C14.2015 60.5285 14.2247 60.2657 14.2537 60.0771C14.2827 59.8828 14.3407 59.5114 14.3755 59.2429C14.4161 58.9743 14.5089 58.3858 14.5902 57.9287C14.6714 57.4716 14.7468 57.0202 14.7642 56.9288C14.7758 56.8317 14.8106 56.6488 14.8396 56.5117C14.8744 56.3803 14.9208 56.1632 14.9498 56.026C15.0542 55.5803 15.1355 55.2147 15.1935 54.9861C15.2283 54.8604 15.2805 54.6661 15.3037 54.5576C15.5821 53.4891 16.2029 51.6607 16.6379 50.6436C16.6786 50.5465 16.7308 50.4208 16.754 50.3579C16.8062 50.2322 16.928 49.9408 17.0788 49.598C17.3515 48.9923 18.123 47.4553 18.4131 46.9411C19.1498 45.6498 19.1324 45.6784 19.5443 45.0041C21.0468 42.57 23.17 39.7817 25.7457 36.8563C26.1111 36.4392 26.5462 35.9478 26.7028 35.7649C26.8653 35.5821 27.2655 35.1307 27.602 34.7593C27.9385 34.3936 28.3678 33.9137 28.5592 33.7022C28.7506 33.4851 29.1799 33.0109 29.5164 32.6452C29.8528 32.2795 30.2821 31.8053 30.4735 31.5882C30.665 31.371 31.0943 30.8968 31.4307 30.5311C31.7672 30.1654 32.1849 29.7026 32.3589 29.5026C32.5329 29.3083 32.9158 28.8798 33.2001 28.5598C33.9252 27.7542 34.3371 27.28 34.7083 26.8457C34.8882 26.64 35.1666 26.3143 35.3349 26.1258C36.6227 24.6288 38.8445 21.8804 39.7727 20.6177C40.9097 19.0807 41.0431 18.8921 41.9539 17.5665C42.7835 16.3609 44.1757 14.1839 44.6862 13.304C44.7674 13.1612 44.8603 13.0069 44.8893 12.9612C45.5274 12.0013 48.4859 6.44176 48.4859 6.20178C48.4859 6.11037 48.5497 6.03609 48.6078 6.05894C48.631 6.07037 48.8804 6.52747 49.1705 7.076ZM68.198 59.3286C69.7179 59.4886 72.0674 59.86 73.6337 60.1914C73.8599 60.2428 74.1558 60.3056 74.3008 60.3342C74.4458 60.3628 74.6663 60.4085 74.7939 60.4371C74.9215 60.4714 75.1071 60.5113 75.2 60.5342C75.3624 60.5685 75.8787 60.6999 76.4182 60.8542C78.8605 61.5341 80.8386 62.6083 80.9546 63.3225C80.9837 63.5168 80.9662 63.5511 80.7168 63.7853C80.5718 63.9282 80.3513 64.0996 80.2295 64.1739C79.8582 64.4081 78.9301 64.871 78.5646 65.0081C78.1991 65.1452 78.0425 65.2081 77.8279 65.2938C77.7524 65.3224 77.6016 65.3738 77.4914 65.4081C77.3812 65.4423 77.1317 65.5166 76.9403 65.5795C76.5574 65.7052 74.7533 66.1509 74.0687 66.2937C73.8309 66.3451 73.3842 66.4365 73.0826 66.4994C71.5395 66.8308 70.8898 66.9565 69.6599 67.1565C69.3583 67.2022 68.9638 67.2708 68.7898 67.2993C68.4301 67.3565 67.9196 67.4365 67.2989 67.5279C67.0668 67.5622 66.713 67.6136 66.5157 67.6422C63.5282 68.0764 59.566 68.4078 54.7801 68.6135C50.3829 68.8021 48.8224 68.8363 48.7876 68.7335C48.776 68.6992 48.8166 68.6706 48.8804 68.6706C49.0138 68.6706 51.1254 67.9736 52.5351 67.465C52.6975 67.4079 52.9876 67.2993 53.1732 67.2365C53.3531 67.1679 53.6141 67.0651 53.7475 67.0079C53.8867 66.9451 54.0202 66.8994 54.055 66.8994C54.0898 66.8994 54.1594 66.8765 54.2174 66.8479C54.3102 66.8022 54.4263 66.7508 54.7801 66.6137C54.8613 66.5794 54.9832 66.5337 55.0586 66.4994C55.4472 66.3337 56.2072 66.0194 56.4334 65.928C57.6401 65.4538 59.5892 64.4824 60.8249 63.7396C60.9931 63.6368 61.2541 63.4825 61.405 63.3911C62.0315 63.014 63.1279 62.2769 63.9458 61.6712C64.9146 60.957 66.4693 59.66 66.6608 59.4086C66.8058 59.2086 66.9566 59.2029 68.198 59.3286ZM83.3795 65.4823C83.3969 65.9852 83.3041 68.1107 83.2345 68.8992C83.1475 69.8534 82.985 71.2818 82.8864 71.8989C82.8574 72.0875 82.8052 72.4475 82.7704 72.6989C82.7356 72.9503 82.6776 73.2817 82.6486 73.4417C82.6196 73.5959 82.5674 73.8702 82.5325 74.0416C82.4455 74.4987 82.2657 75.2929 82.1845 75.5843C81.9466 76.47 81.3433 78.167 80.972 78.984C80.8908 79.1726 80.7806 79.4183 80.74 79.5268C80.6472 79.7611 79.8234 81.3495 79.6494 81.6409C79.5798 81.7495 79.458 81.9552 79.3767 82.098C77.6538 85.1149 74.6895 88.0461 71.0522 90.3202C70.3909 90.7316 69.4337 91.2972 69.3931 91.2972C69.3757 91.2972 69.2887 91.343 69.2074 91.4058C69.045 91.5144 67.1596 92.4571 66.7014 92.6571C66.5563 92.72 66.3185 92.8228 66.1735 92.8857C66.0284 92.9542 65.7674 93.0628 65.5934 93.1257C65.4193 93.1942 65.2047 93.2799 65.1061 93.3256C64.6594 93.5142 64.0213 93.7427 62.9016 94.1027C61.3064 94.6227 61.0627 94.6912 60.4362 94.8398C60.326 94.8684 60.1287 94.9198 60.0011 94.9484C59.8735 94.9826 59.6414 95.0398 59.479 95.0741C59.3224 95.1083 59.0961 95.1598 58.9859 95.1826C58.5682 95.274 57.4428 95.4912 57.0715 95.554C56.9613 95.5712 56.7235 95.6169 56.5494 95.6454C56.2072 95.7026 55.8185 95.754 54.7511 95.8911C50.8006 96.3825 46.2061 96.3539 42.0757 95.8054C41.6232 95.7483 41.3042 95.6969 40.5848 95.5826C40.0918 95.4969 39.1694 95.3255 38.7691 95.2398C38.6415 95.2169 38.3804 95.1598 38.189 95.1198C37.8525 95.0512 37.168 94.8855 36.3326 94.6684C34.8012 94.2684 32.3241 93.4171 31.0943 92.8628C30.926 92.7885 30.7752 92.7257 30.7578 92.7257C30.7056 92.7257 28.6114 91.7029 28.1241 91.4344C24.7247 89.5774 22.1258 87.549 20.0258 85.0978C19.3587 84.3207 18.3203 82.8694 17.8852 82.098C17.804 81.9552 17.6821 81.7495 17.6125 81.6409C17.2529 81.0524 16.4639 79.4354 16.081 78.5155C15.3559 76.7556 14.9556 75.4186 14.6714 73.7559C14.6424 73.5845 14.5786 73.2245 14.5321 72.956C14.3233 71.7675 14.2189 70.9562 14.0217 69.0135C13.9404 68.1678 13.8824 65.1281 13.9462 65.1281C13.981 65.1281 14.1319 65.2595 14.2885 65.4195C14.6308 65.7623 15.0833 66.1109 15.5647 66.3965C15.9128 66.6022 16.9512 67.1279 17.0092 67.1279C17.0266 67.1279 17.189 67.1965 17.3747 67.2765C18.065 67.5907 19.8982 68.1964 21.0468 68.4992C21.4122 68.5906 21.8067 68.6935 21.9169 68.7221C22.12 68.7792 22.9727 68.9792 23.3962 69.0706C23.7385 69.1449 24.1156 69.2249 24.4114 69.2934C24.5564 69.322 24.7537 69.362 24.8465 69.3791C24.9451 69.3906 25.1713 69.4306 25.357 69.4649C28.1241 69.9848 31.1291 70.4133 34.2733 70.7276C34.6097 70.7619 35.1202 70.8133 35.4045 70.8419C35.6945 70.8704 36.2398 70.9219 36.6227 70.9504C37.0056 70.9847 37.6205 71.0361 37.986 71.0704C40.8575 71.3104 45.2373 71.4704 48.921 71.4704C53.7649 71.4647 59.3224 71.1961 63.0177 70.7847C63.3077 70.7505 63.7892 70.699 64.0909 70.6705C65.3207 70.5448 65.7326 70.4991 66.5621 70.3848C67.0378 70.3219 67.6701 70.2305 67.966 70.1848C68.2561 70.1391 68.755 70.0591 69.0682 70.0134C69.6309 69.9277 70.1008 69.8477 70.5881 69.7563C70.7331 69.7277 71.0174 69.6763 71.2262 69.642C71.4351 69.6077 71.7077 69.5563 71.8353 69.5277C71.963 69.5049 72.2124 69.4534 72.3864 69.4134C73.3958 69.2077 74.585 68.9335 75.374 68.7278C76.4646 68.4421 76.7605 68.3564 77.6306 68.0764C79.2897 67.5336 79.5624 67.425 80.798 66.8251C81.8132 66.328 82.3817 65.9623 82.9154 65.4595C83.1417 65.2538 83.3331 65.0938 83.3447 65.1052C83.3563 65.1167 83.3737 65.2881 83.3795 65.4823ZM87.2082 65.3281C88.1712 65.3795 89.198 65.5338 90.4858 65.8137C90.6541 65.8537 91.1182 65.9909 91.8201 66.2137C92.493 66.4251 93.5662 66.9394 94.1985 67.3508C95.0919 67.9336 96.0027 68.9335 96.3913 69.762C97.1861 71.4647 96.9715 73.6302 95.7764 76.0414C95.3181 76.9671 94.9701 77.5042 94.2159 78.4355C93.8389 78.9097 92.5046 80.2411 92.1682 80.4925C92.0579 80.5725 91.8259 80.7496 91.6577 80.8867C90.1668 82.0638 87.974 83.1665 85.6129 83.9207C85.0618 84.0979 84.7138 84.195 83.716 84.435C83.1765 84.5664 81.3955 84.8407 81.1055 84.8407C80.9837 84.8407 81.0185 84.755 81.3375 84.2921C81.6682 83.8008 81.7552 83.6636 82.2541 82.7951C82.4455 82.4694 83.0894 81.2067 83.3215 80.6982C84.5281 78.0698 85.3403 75.1901 85.8102 71.8418C86.0596 70.0648 86.1814 68.5906 86.2278 66.7851C86.2452 66.0137 86.2742 65.3509 86.2859 65.3052C86.3033 65.2595 86.3613 65.2424 86.4425 65.2595C86.5121 65.2824 86.8602 65.3109 87.2082 65.3281ZM34.9578 97.1196C35.01 97.1539 35.2246 97.2167 35.4335 97.2682C35.6423 97.3196 35.9034 97.3881 36.0136 97.4167C36.1238 97.451 36.321 97.5024 36.4487 97.531C36.5763 97.5653 36.7735 97.611 36.8838 97.6338C37.9279 97.8852 40.1788 98.3081 41.4666 98.4909C43.3636 98.7594 43.8045 98.8109 45.0053 98.908C46.1771 98.9994 51.2124 98.9994 52.4887 98.9023C54.4437 98.7652 55.25 98.6566 57.7387 98.2109C58.7597 98.0281 59.8735 97.8052 60.5232 97.6453C60.8887 97.5596 62.0663 97.251 62.3099 97.1824C62.4376 97.1482 62.5478 97.131 62.571 97.1482C62.5884 97.1653 62.5478 97.291 62.4782 97.4224C62.3621 97.6567 62.0547 98.3481 61.724 99.1137C61.4166 99.8508 60.9815 100.136 59.6704 100.474C57.6053 101.016 55.8243 101.268 52.6627 101.468C51.5025 101.542 46.4846 101.542 45.2373 101.468C43.9031 101.388 42.7429 101.302 42.1627 101.234C41.0083 101.108 40.202 100.999 39.6683 100.896C39.5232 100.868 39.239 100.816 39.0302 100.776C38.4442 100.674 37.1274 100.331 36.7213 100.176C35.9962 99.9079 35.9266 99.8108 35.1318 98.0395C34.9404 97.6167 34.7606 97.2453 34.7315 97.211C34.5981 97.0796 34.7548 97.0167 34.9578 97.1196Z" fill="#333333"/>
<path d="M0.0874294 95.1713C-0.185222 95.4627 0.116435 95.7769 1.90317 97.0968C2.93577 97.8568 4.94294 99.1652 5.7609 99.6166C5.92333 99.7023 6.21918 99.868 6.42802 99.9823C7.50703 100.577 7.83769 100.754 9.05012 101.342C9.78105 101.696 10.3844 101.982 10.4018 101.982C10.4134 101.982 10.6048 102.062 10.8194 102.159C11.0399 102.256 11.3473 102.394 11.504 102.468C11.6664 102.536 11.9275 102.651 12.0841 102.725C12.3625 102.845 12.5714 102.936 12.9543 103.096C13.0529 103.136 13.2443 103.211 13.3893 103.268C13.5344 103.319 13.7432 103.399 13.8534 103.451C13.9636 103.496 14.1145 103.559 14.1899 103.588C14.2595 103.616 14.3755 103.662 14.4509 103.691C17.044 104.725 19.8401 105.65 22.8451 106.467C23.373 106.616 23.9705 106.782 24.1794 106.839C24.6493 106.965 27.0277 107.542 27.747 107.696C27.8747 107.724 28.0951 107.77 28.2401 107.804C28.3852 107.833 28.565 107.873 28.6462 107.884C28.7274 107.902 29.2611 108.004 29.8354 108.119C30.4097 108.233 31.0363 108.353 31.2277 108.387C31.6512 108.462 31.9934 108.524 32.4169 108.604C33.1362 108.736 35.6539 109.124 36.5647 109.239C36.8547 109.273 37.2724 109.324 37.4929 109.353C37.8757 109.404 38.2586 109.444 39.5697 109.581C40.6197 109.69 42.5804 109.833 44.2801 109.936C45.8174 110.021 52.1986 110.021 53.5619 109.936C54.1362 109.896 55.0122 109.839 55.5053 109.81C57.7503 109.661 60.1229 109.387 62.7276 108.976C65.0539 108.61 65.5353 108.53 66.5853 108.319C66.8754 108.262 67.2989 108.182 67.763 108.096C67.9254 108.067 68.3025 107.993 68.5867 107.93C68.8768 107.867 69.3061 107.776 69.5439 107.73C69.7817 107.679 70.0718 107.616 70.182 107.587C70.2922 107.553 70.5185 107.502 70.6751 107.467C70.8375 107.433 71.058 107.382 71.1682 107.353C71.2784 107.325 71.5279 107.262 71.7193 107.222C72.1196 107.125 73.274 106.827 73.8657 106.662C74.092 106.599 74.3762 106.525 74.5038 106.485C76.366 105.976 77.9961 105.473 79.7248 104.868C80.1425 104.725 80.595 104.565 80.74 104.519C81.0475 104.41 82.1555 103.999 82.3643 103.913C82.4455 103.879 82.5673 103.828 82.6428 103.805C82.7124 103.776 82.8284 103.731 82.9038 103.702C82.9734 103.679 83.1011 103.628 83.1939 103.588C83.2809 103.553 83.4085 103.502 83.4839 103.473C83.6754 103.399 84.2149 103.182 84.4933 103.062C84.6325 102.999 84.7544 102.953 84.7718 102.953C84.7834 102.953 84.9342 102.891 85.1024 102.816C85.5723 102.611 86.6977 102.102 87.1212 101.914C87.33 101.816 87.9566 101.514 88.5135 101.239C89.401 100.799 89.7955 100.588 91.153 99.8395C92.8121 98.9252 95.2543 97.274 96.5944 96.1655C97.2441 95.6227 97.3949 95.3656 97.1687 95.1656C96.9657 94.9827 96.7626 95.0456 95.9389 95.5313C94.9701 96.1083 92.8353 97.2111 91.6171 97.7653C91.3618 97.8796 90.8977 98.091 90.5787 98.2339C90.2654 98.3767 89.9985 98.4967 89.9869 98.4967C89.9753 98.4967 89.8303 98.5596 89.6621 98.6338C89.4939 98.7081 89.1864 98.8395 88.9776 98.9252C88.7687 99.011 88.5251 99.1138 88.4265 99.1538C88.3336 99.1995 88.1364 99.2738 87.9914 99.3252C87.8463 99.3766 87.6723 99.4452 87.6027 99.4738C87.5273 99.5023 87.4113 99.548 87.3416 99.5766C85.9378 100.137 83.0082 101.148 81.3781 101.639C81.1403 101.708 80.798 101.816 80.624 101.868C80.45 101.925 80.1889 101.999 80.0439 102.039C79.8988 102.079 79.719 102.131 79.6378 102.159C79.1563 102.319 76.2616 103.108 75.4494 103.302C75.1245 103.376 74.8113 103.456 74.6779 103.491C74.6141 103.502 74.3356 103.571 74.0571 103.633C73.7729 103.702 73.3262 103.805 73.0536 103.868C71.8817 104.136 71.5917 104.205 71.4002 104.239C71.29 104.262 71.1044 104.302 70.9942 104.325C69.8514 104.57 67.2757 105.073 66.5853 105.182C66.2315 105.239 65.3439 105.382 64.8334 105.468C64.1489 105.582 63.8182 105.633 63.3657 105.696C63.1105 105.73 62.745 105.782 62.5536 105.81C62.3621 105.839 61.9561 105.89 61.6544 105.925C61.3528 105.959 60.9235 106.01 60.6972 106.039C59.1715 106.233 57.1296 106.422 54.2 106.622C52.7671 106.725 45.0285 106.725 43.555 106.622C42.9633 106.582 42.0931 106.525 41.6116 106.49C40.5094 106.422 39.4884 106.336 38.8561 106.267C38.5835 106.239 38.0904 106.187 37.7539 106.153C36.5879 106.033 34.1108 105.725 33.2291 105.582C33.055 105.553 32.7128 105.502 32.4749 105.468C32.2371 105.433 31.9122 105.382 31.7498 105.353C31.5932 105.325 31.2625 105.273 31.0247 105.239C30.7868 105.199 30.3401 105.125 30.0385 105.068C29.7368 105.01 29.1335 104.896 28.7042 104.81C27.9327 104.668 27.6426 104.61 25.9661 104.262C25.7979 104.228 25.5542 104.176 25.4266 104.153C25.299 104.125 25.0669 104.073 24.9045 104.039C24.7479 104.005 24.5042 103.948 24.3708 103.919C23.6573 103.765 23.3498 103.696 22.9321 103.588C22.8045 103.553 22.3346 103.439 21.8879 103.331C20.7567 103.056 20.078 102.879 19.3355 102.668C18.9874 102.565 18.6451 102.474 18.5813 102.456C18.5175 102.439 18.1636 102.336 17.7982 102.228C17.4327 102.114 17.044 102.005 16.9454 101.976C16.4813 101.851 16.3479 101.811 15.8838 101.668C14.5554 101.251 12.8614 100.679 11.823 100.297C11.4228 100.148 10.9529 99.9766 10.7788 99.9137C10.6048 99.8509 10.3844 99.7652 10.2857 99.7252C10.1929 99.6852 9.95509 99.5938 9.76365 99.5252C9.57221 99.4509 9.39238 99.3709 9.35757 99.3424C9.32857 99.3195 9.27056 99.2966 9.22995 99.2966C9.18934 99.2966 9.02691 99.2395 8.87608 99.1767C8.56282 99.0395 8.48161 99.0052 7.64625 98.651C7.06034 98.4053 6.64266 98.2167 5.64488 97.7653C5.38963 97.6511 4.6877 97.3082 4.07858 97.0054C2.97637 96.4569 2.11781 95.9941 0.742953 95.217C0.435495 95.0456 0.215053 95.0284 0.0874294 95.1713Z" fill="#333333"/>
<path d="M22.7063 44.4043C22.4627 44.8842 22.2654 45.3071 22.2654 45.3356C22.2654 45.3699 22.1958 45.5585 22.1146 45.7642C22.0276 45.9641 21.9406 46.2041 21.9115 46.3013C21.8883 46.3927 21.8361 46.5755 21.8013 46.7012C21.4707 47.924 21.3662 49.421 21.5403 50.5352C21.6215 51.0608 21.6563 51.2094 21.7955 51.7122C22.045 52.615 22.7469 53.8606 23.5243 54.7577C24.1218 55.4547 25.4676 56.5347 26.3436 57.0089C26.6104 57.1575 26.709 57.1575 26.7613 57.026C26.8309 56.8775 26.7961 56.7461 26.5872 56.3347C26.477 56.129 26.3378 55.8261 26.2682 55.6719C26.1986 55.5119 26.0825 55.2548 26.0129 55.1005C25.8273 54.6891 25.456 53.7178 25.3458 53.3578C25.311 53.2492 25.2356 53.0035 25.1718 52.815C24.9629 52.1579 24.8759 51.8379 24.7309 51.2151C24.4698 50.0952 24.3422 48.7525 24.5046 48.9182C24.522 48.9353 24.5742 49.1182 24.6149 49.3296C24.6613 49.541 24.7831 49.9352 24.8817 50.2038C24.9803 50.478 25.1021 50.8037 25.1486 50.9294C25.2472 51.198 25.8563 52.4207 26.0709 52.7864C26.4596 53.4378 27.0513 54.1806 27.5908 54.6834C28.0781 55.1462 28.1825 55.1291 28.5596 54.5348C28.838 54.1063 29.0643 53.5578 29.2325 52.9235C29.3485 52.4836 29.3659 52.2779 29.3659 51.3865C29.3659 50.518 29.3427 50.2838 29.2383 49.8895C28.9773 48.8953 28.4842 47.8954 27.8577 47.0726C27.2195 46.2384 26.1347 45.2271 25.137 44.5471C24.8063 44.3186 23.9419 43.8215 23.6867 43.7072C23.5939 43.6672 23.4662 43.6101 23.414 43.5815C23.356 43.5529 23.2748 43.5301 23.2284 43.5301C23.1762 43.5301 22.9673 43.8843 22.7063 44.4043Z" fill="#333333"/>
</svg>
