<svg width="50" height="55" viewBox="0 0 50 55" fill="none" xmlns="http://www.w3.org/2000/svg">
<path d="M24.1763 0.0469246C24.1502 0.0754929 24.1269 0.109776 24.1269 0.121204C24.1269 0.135487 24.0428 0.312614 23.9413 0.521168C23.8398 0.726864 23.6658 1.08112 23.5555 1.30967C22.8362 2.78383 21.9283 4.52654 21.5397 5.17505C21.4962 5.24933 21.4584 5.31504 21.4584 5.32075C21.4584 5.32647 21.2467 5.69215 21.1742 5.80928C21.1539 5.84071 20.9973 6.09783 20.8261 6.38066C20.362 7.14345 19.8602 7.89767 19.3846 8.55761C19.2975 8.68046 19.2018 8.81188 19.1757 8.85188C19.1206 8.92901 18.9669 9.14042 18.584 9.65181C18.0793 10.3317 17.2701 11.3431 16.5739 12.163C16.3796 12.3887 16.1678 12.6401 16.0982 12.7201C15.814 13.0544 15.6283 13.2658 14.9612 14.0086C14.8568 14.1257 14.6886 14.3143 14.5842 14.4285C14.1955 14.8656 13.5196 15.6141 13.3804 15.7656C13.2992 15.8513 13.1426 16.0255 13.0324 16.1512C12.9221 16.2769 12.8235 16.3855 12.8148 16.3941C12.8003 16.4084 11.9331 17.3883 11.6401 17.7225C11.205 18.2168 10.2884 19.3253 10.1376 19.5367C10.1115 19.5767 10.0506 19.6538 10.0071 19.7109C9.15433 20.8308 8.33347 22.1193 7.75917 23.2363C7.51552 23.7134 7.27477 24.2077 7.27477 24.2363C7.27477 24.242 7.23707 24.3305 7.19356 24.4277C7.11524 24.5991 6.99922 24.8791 6.82809 25.319C6.74688 25.5247 6.46842 26.3446 6.40461 26.5646C6.38431 26.636 6.3582 26.7246 6.3466 26.7646C6.31469 26.8675 6.21318 27.2503 6.14356 27.5503C6.10876 27.6902 6.07105 27.8588 6.05655 27.9216C5.97823 28.2445 5.8245 29.0673 5.76649 29.4787C5.62436 30.4414 5.56925 31.0985 5.53735 32.1413C5.47354 34.2925 5.68818 36.3038 6.17257 38.0922C6.30019 38.5579 6.3669 38.7807 6.40751 38.855C6.42201 38.8836 6.43362 38.9235 6.43362 38.9464C6.43362 38.9664 6.45972 39.0464 6.48873 39.1235C6.52063 39.2007 6.57284 39.3407 6.60765 39.4349C6.70627 39.7035 6.75558 39.8178 7.04273 40.452C7.20516 40.8062 7.52422 41.409 7.70986 41.7062C8.04342 42.2461 8.15654 42.409 8.58002 42.9489C9.15143 43.6803 10.4654 44.9345 11.3471 45.5915C11.4226 45.6458 11.5357 45.7287 11.5966 45.7772C11.6604 45.823 11.7619 45.9001 11.8199 45.9458C12.5016 46.4543 13.6618 47.1314 14.3898 47.4457C14.4652 47.4799 14.5813 47.5314 14.6509 47.5599C14.7176 47.5914 15.0018 47.7056 15.2803 47.8142C15.9416 48.0742 15.9445 48.077 15.9619 48.1456C15.9706 48.1799 15.9909 48.2513 16.0054 48.3056C16.0199 48.3599 16.0576 48.4941 16.0924 48.6056C16.1243 48.7141 16.1649 48.857 16.1853 48.9198C16.3013 49.3284 16.5217 49.934 16.6464 50.1854C16.8785 50.6568 17.2469 51.0025 17.8183 51.2853C18.059 51.4025 18.3926 51.5282 18.6391 51.5939C18.8944 51.6624 18.964 51.6796 19.1525 51.7167C19.8921 51.8624 20.9334 51.9767 22.4736 52.0824C23.1263 52.1281 25.9021 52.1253 26.4764 52.0796C27.4568 52.0024 28.0949 51.9367 28.6953 51.8481C28.791 51.8339 28.968 51.8081 29.0869 51.791C29.6815 51.7082 30.3776 51.4996 30.8736 51.2596C31.5726 50.9225 31.9207 50.554 32.1615 49.8912C32.3065 49.4912 32.4602 49.0027 32.5675 48.5913C32.5878 48.5199 32.6139 48.4313 32.6255 48.3913C32.6371 48.3513 32.6633 48.2656 32.6807 48.197C32.701 48.1285 32.73 48.0685 32.7503 48.0628C32.9185 48.0113 33.342 47.8542 33.4899 47.7885C33.5885 47.7428 33.6813 47.7056 33.6958 47.7056C33.7074 47.7056 33.7568 47.6885 33.8032 47.6656C33.8496 47.6428 33.954 47.5971 34.0323 47.5628C34.5718 47.3285 34.7284 47.2514 35.091 47.0543C35.6537 46.7457 36.4398 46.2458 36.9184 45.8915C37.6667 45.3373 38.4237 44.7002 38.8762 44.2517L39.1083 44.0203H39.5346C40.9646 44.0203 42.4352 43.7946 43.5461 43.4032C43.6592 43.3632 43.8071 43.3117 43.8797 43.2889C44.0131 43.246 44.0305 43.2375 44.2567 43.1403C44.3292 43.1118 44.4453 43.0603 44.5178 43.0318C45.1936 42.7489 46.2059 42.1376 46.8933 41.5976C47.5024 41.1205 48.0768 40.5577 48.4393 40.0806C49.2457 39.0264 49.7185 38.0179 49.9099 36.9494C50.0346 36.2409 50.0317 35.7867 49.8896 35.021C49.8461 34.7896 49.6924 34.3525 49.5705 34.1068C49.1964 33.3583 48.4364 32.5984 47.5489 32.0927C47.2211 31.9042 46.5511 31.6099 46.1856 31.4928C45.2516 31.1928 44.4047 31.0385 43.3808 30.9757L43.0704 30.9585L43.053 30.7671C43.0182 30.3529 42.8587 29.1873 42.8065 28.9501C42.792 28.8873 42.7659 28.753 42.7485 28.6502C42.731 28.5473 42.7049 28.413 42.6904 28.3502C42.6759 28.2873 42.6498 28.1645 42.6324 28.0788C42.5976 27.9045 42.5019 27.5017 42.4555 27.3217C42.4381 27.2588 42.412 27.156 42.3946 27.0931C42.3772 27.0303 42.354 26.9474 42.3424 26.9074C42.3308 26.8675 42.3047 26.7789 42.2844 26.7075C42.2641 26.636 42.2234 26.5018 42.1915 26.4075C42.1625 26.3132 42.1277 26.1961 42.1132 26.1504C41.9972 25.7704 41.6114 24.7705 41.4258 24.3705C41.3881 24.2877 41.3562 24.2134 41.3562 24.2048C41.3562 24.1563 40.6804 22.8364 40.5005 22.5364C39.9581 21.6222 39.6884 21.1965 39.2997 20.6509C39.0416 20.288 38.9487 20.1623 38.6297 19.7366C38.5572 19.6424 38.4672 19.5224 38.4266 19.4681C38.299 19.2995 37.7508 18.6167 37.629 18.4796C37.5652 18.4053 37.4405 18.2596 37.3534 18.1511C37.2664 18.0454 37.1156 17.8654 37.017 17.754C36.344 16.9769 35.8829 16.4484 35.4536 15.9684C35.1838 15.6627 34.9083 15.3542 34.8445 15.2799C34.74 15.1599 34.3195 14.6914 33.8322 14.1514C33.7307 14.04 33.6059 13.9 33.5537 13.8372C33.4986 13.7743 33.3942 13.6572 33.3217 13.58C33.2492 13.5 33.1534 13.3915 33.107 13.3372C33.0606 13.2829 32.9765 13.1858 32.9185 13.1201C32.8605 13.0572 32.7155 12.8915 32.5965 12.7515C32.4776 12.6144 32.3268 12.4401 32.263 12.3659C32.0773 12.1516 31.8946 11.9345 31.7989 11.8202C31.7525 11.7602 31.5813 11.5574 31.4218 11.3659C31.2623 11.1774 31.0999 10.9803 31.0592 10.9288C31.0186 10.8774 30.862 10.6831 30.7083 10.4946C29.9338 9.53467 28.7649 7.92053 28.15 6.95204C27.7874 6.38352 27.7033 6.24639 27.5264 5.95213C27.422 5.77785 27.2856 5.54645 27.2218 5.43789C27.158 5.32647 27.0623 5.16077 27.0101 5.06649C26.955 4.97221 26.8651 4.81223 26.8129 4.70938C26.7577 4.60653 26.6591 4.42654 26.5953 4.30941C26.4213 3.99515 25.4148 2.01247 24.9971 1.1554C24.4054 -0.0530663 24.4431 0.0097847 24.3271 0.00121307C24.2575 -0.00450134 24.2111 0.0097847 24.1763 0.0469246ZM24.5852 3.53805C25.1421 4.60939 25.876 5.9607 25.9543 6.0664C25.9688 6.08069 26.0123 6.15782 26.0558 6.23782C26.2414 6.56921 26.6649 7.25773 26.9347 7.66626C27.0391 7.82339 27.1377 7.97766 27.1551 8.00909C27.1725 8.04052 27.3407 8.29192 27.5293 8.56618C28.6315 10.1832 29.8033 11.6802 31.3493 13.4515C31.9236 14.1086 32.0512 14.2543 32.1934 14.4085C32.2688 14.4857 32.4109 14.6457 32.5124 14.7628C32.8025 15.0913 32.9881 15.2999 33.3884 15.7398C33.5943 15.9655 33.8815 16.2855 34.0265 16.4484C34.1744 16.6112 34.3601 16.8198 34.4384 16.9083C34.5196 16.9969 34.6936 17.1969 34.83 17.3511C34.9663 17.5083 35.1287 17.694 35.1954 17.7654C35.2592 17.8368 35.3492 17.9397 35.3985 17.9968C35.4449 18.0539 35.6015 18.2339 35.7436 18.3939C35.8887 18.5567 36.0366 18.731 36.0772 18.7824C36.1178 18.831 36.3643 19.1338 36.6283 19.4538C37.1243 20.0566 37.1475 20.0852 37.484 20.5251C37.8958 21.0651 38.4005 21.7822 38.6587 22.1936C38.7109 22.2793 38.8182 22.4507 38.8965 22.5735C38.9719 22.6964 39.0358 22.8049 39.0358 22.8135C39.0358 22.8221 39.059 22.8621 39.088 22.9021C39.2127 23.0792 39.7609 24.1105 39.9726 24.5648C40.1525 24.9476 40.1873 25.0305 40.3381 25.399C40.6514 26.1732 40.8312 26.716 41.04 27.5074C41.1038 27.7531 41.1183 27.8159 41.2228 28.3216C41.3446 28.9216 41.3649 29.0473 41.4867 29.9358C41.4983 30.0072 41.5157 30.1729 41.5302 30.3072C41.5447 30.4414 41.5621 30.5728 41.5737 30.5986C41.6085 30.6814 41.5186 30.6586 41.4519 30.5671C41.3243 30.4014 40.6862 29.9815 40.283 29.7986C39.6101 29.4958 39.1141 29.3158 38.4411 29.133C38.3773 29.1158 38.2932 29.0901 38.2526 29.0758C37.9916 28.993 36.666 28.7016 36.0337 28.5902C35.938 28.573 35.8016 28.5502 35.7291 28.5359C35.5116 28.4959 34.7923 28.3959 34.6588 28.3845L34.5602 28.3788L34.6675 28.253C34.8474 28.0416 35.1954 27.5103 35.3608 27.1931C35.5377 26.8532 35.7407 26.3618 35.9032 25.879C35.967 25.699 36.0685 25.3962 36.1352 25.2076C36.2657 24.8419 36.2744 24.7191 36.1787 24.5762C36.0076 24.3162 35.5174 24.2734 35.12 24.4819C34.8735 24.6105 34.8184 24.6848 34.7023 25.0219C34.3949 25.9332 34.1947 26.3875 33.8438 26.9617C33.3942 27.7074 32.7126 28.4902 31.9439 29.153C31.7061 29.3558 31.184 29.7729 31.0709 29.8501C31.036 29.8729 30.8852 29.9786 30.7344 30.0843C30.4559 30.2786 29.8236 30.6786 29.7946 30.6786C29.7859 30.6786 29.7424 30.7014 29.7018 30.7328C29.6583 30.7614 29.5597 30.8214 29.4785 30.8614C29.4001 30.9042 29.2899 30.9642 29.2348 30.9957C28.878 31.2042 27.7265 31.7356 27.1435 31.9642C27.071 31.9927 26.9086 32.0584 26.7809 32.107C26.2908 32.3013 25.1421 32.6898 24.7506 32.7927C24.7042 32.8069 24.5272 32.8584 24.359 32.9069C23.8543 33.0555 23.7499 33.0869 23.3003 33.2069C23.0015 33.2869 22.4649 33.4212 22.3141 33.4526C22.2358 33.4697 22.1227 33.4954 22.0676 33.5069C21.7485 33.5754 20.597 33.7983 20.1387 33.8754C19.4832 33.9897 19.2511 34.0383 19.0278 34.1097C18.8276 34.1754 18.9292 34.1811 17.7022 34.0497C17.0525 33.9811 16.8756 33.964 16.6493 33.9468C16.4927 33.9354 16.4115 33.9154 16.4202 33.8954C16.426 33.8783 16.4608 33.8611 16.5014 33.8554C16.5391 33.8497 16.6812 33.8097 16.8176 33.7669C16.9539 33.7211 17.241 33.6326 17.4557 33.564C17.6703 33.4983 17.8734 33.4326 17.9053 33.4212C17.9372 33.4069 17.9894 33.3897 18.0213 33.384C18.1953 33.3383 19.75 32.7841 20.0952 32.6441C20.1358 32.627 20.1967 32.6012 20.2344 32.5898C20.3591 32.5412 20.4578 32.5012 20.5071 32.4755C20.5361 32.4613 20.5709 32.4498 20.5883 32.4498C20.6057 32.4498 20.6811 32.4213 20.7565 32.3898C20.9886 32.287 21.0611 32.2556 21.2264 32.1927C21.3134 32.1584 21.4845 32.087 21.6035 32.0299C21.7224 31.9756 21.879 31.907 21.9515 31.8784C22.2793 31.747 23.4859 31.1642 23.9239 30.9271C24.388 30.6728 24.4518 30.6357 24.913 30.3614C25.7135 29.89 26.7113 29.2044 27.7033 28.4502C28.6576 27.7245 29.6989 26.6418 30.395 25.6504C30.6909 25.2305 31.1347 24.4419 31.2594 24.1077C31.2797 24.0534 31.3116 23.9763 31.3261 23.9363C31.3435 23.8963 31.3667 23.8391 31.3812 23.8077C31.4421 23.662 31.5813 23.2135 31.6336 22.9935C31.8076 22.2879 31.8279 22.105 31.825 21.3222C31.8221 20.6166 31.7815 20.2109 31.6655 19.7509C31.6481 19.6881 31.6249 19.5909 31.6104 19.5367C31.5639 19.3424 31.5146 19.1738 31.4015 18.8367C31.2913 18.5053 31.2565 18.4082 31.2014 18.3025C31.1869 18.2739 31.1753 18.2396 31.1753 18.2225C31.1753 18.2082 31.1376 18.1139 31.0941 18.0168C31.0476 17.9168 30.9925 17.7911 30.9722 17.7368C30.8011 17.3054 30.0673 15.9713 29.6264 15.2942C28.9767 14.2971 28.501 13.6257 27.6192 12.4687C27.3349 12.0945 27.0739 11.7516 27.042 11.7088C26.9202 11.5516 26.2879 10.7746 26.1892 10.6631C26.1312 10.6003 26.0123 10.4603 25.9253 10.3546C25.1421 9.39754 24.4953 8.68046 24.3532 8.60618C24.2372 8.54619 24.0602 8.55476 23.9732 8.62618C23.8833 8.69189 23.7383 8.98615 23.7093 9.15185C23.6977 9.2147 23.6774 9.39468 23.6629 9.55182C23.6484 9.70894 23.6222 9.92035 23.6048 10.0232C23.5874 10.126 23.5613 10.2803 23.5468 10.366C23.5323 10.4517 23.5091 10.586 23.4917 10.666C23.4482 10.8974 23.4018 11.1431 23.3757 11.2802C23.3322 11.5088 23.1089 12.4858 23.0334 12.7658C22.9928 12.9144 22.9493 13.0858 22.9348 13.1429C22.8855 13.3429 22.8536 13.4658 22.8275 13.5658C22.8101 13.62 22.7782 13.7429 22.7521 13.8372C22.726 13.9314 22.6941 14.04 22.6796 14.08C22.6651 14.12 22.6245 14.2486 22.5897 14.3657C22.5171 14.5971 22.1662 15.6227 22.0705 15.8798C22.0124 16.0398 21.8993 16.3369 21.7514 16.7283C21.5397 17.294 21.1568 18.1911 20.8522 18.8367C20.5129 19.5509 19.7674 20.9594 19.5963 21.1994C19.5673 21.2394 19.5441 21.2794 19.5441 21.2879C19.5441 21.3279 18.9089 22.3364 18.5115 22.9278C17.9807 23.7192 17.3716 24.5219 16.7422 25.2647C16.4898 25.5647 16.0837 26.0418 15.8459 26.3218C15.2368 27.0417 14.9119 27.476 14.5116 28.1073C14.2912 28.453 14.0475 28.9444 13.8909 29.3501C13.8532 29.4444 13.8155 29.5472 13.801 29.5786C13.7894 29.6101 13.7633 29.6929 13.743 29.7643C13.7227 29.8358 13.6966 29.9243 13.6821 29.9643C13.598 30.2072 13.5138 30.8671 13.5342 31.1071C13.5458 31.2499 13.6299 31.3442 13.7401 31.3442C13.8039 31.3442 13.8764 31.3071 13.9953 31.2128C14.4304 30.8643 15.1295 30.4643 15.6138 30.2814C15.7096 30.2443 15.814 30.2043 15.8459 30.19C16.1388 30.0643 17.2004 29.7786 18.0648 29.5958C20.13 29.153 21.2757 28.773 22.2706 28.1988C22.7521 27.9216 22.8681 27.7559 22.6767 27.616C22.6071 27.5674 22.5432 27.5617 21.9138 27.5645C20.7043 27.5645 19.4745 27.6702 18.5637 27.8502C17.9836 27.9645 17.1917 28.1902 16.8495 28.3416C16.777 28.373 16.6696 28.4187 16.6145 28.4416C16.3129 28.5702 15.756 28.8644 15.6545 28.953C15.6138 28.9901 15.5413 29.0073 15.5413 28.9816C15.5413 28.953 15.7531 28.6073 15.9358 28.3359C16.1098 28.0788 16.2781 27.8559 16.6725 27.3503C16.7886 27.2017 16.9655 26.9903 17.0931 26.8475C17.1569 26.776 17.3339 26.5789 17.4847 26.4075C17.6355 26.2361 17.8328 26.0161 17.9198 25.9218C18.1025 25.7218 18.6449 25.099 18.7754 24.9362C18.8247 24.8762 18.9553 24.7191 19.0713 24.5877L19.2772 24.3448L19.5934 24.3105C19.7645 24.2905 20.0256 24.2563 20.1677 24.2334C20.3127 24.2105 20.5013 24.1791 20.5883 24.1648C20.6753 24.1505 20.8841 24.1134 21.0524 24.0791C21.2206 24.0448 21.3888 24.0106 21.4294 24.002C21.56 23.9791 21.7775 23.9306 22.0908 23.8506C22.1488 23.8363 22.2822 23.8049 22.3866 23.7792C22.491 23.7534 22.6738 23.7077 22.7927 23.6763C22.9116 23.6449 23.0508 23.6077 23.0973 23.5963C23.2336 23.5592 24.2981 23.2078 24.475 23.1363C24.562 23.1021 24.681 23.0564 24.7361 23.0306C24.7912 23.0078 24.884 22.9678 24.9391 22.9421C25.5105 22.6992 26.0065 22.4136 26.4184 22.0907C27.0304 21.6108 27.2392 21.1565 26.8854 21.0708C26.8245 21.0565 26.3807 21.2022 25.9833 21.3679C25.8876 21.4079 25.38 21.5736 25.1131 21.6508C24.9942 21.685 24.8637 21.725 24.8231 21.7365C24.7419 21.7622 24.6577 21.7822 24.1647 21.9079C23.9819 21.9507 23.4511 22.0736 23.1495 22.1393C23.0798 22.1536 22.9696 22.1764 22.9029 22.1936C22.8333 22.2079 22.5578 22.265 22.2851 22.3221C21.8442 22.4136 21.502 22.4878 21.1539 22.565C21.0901 22.5793 20.9392 22.6135 20.8203 22.6392C20.7014 22.6621 20.5564 22.6935 20.4984 22.705C20.4433 22.7164 20.3794 22.7364 20.362 22.7478C20.3098 22.7792 20.2895 22.7078 20.3359 22.6564C20.3707 22.6164 20.5477 22.3278 20.7333 22.0079C20.7594 21.9593 20.8261 21.8507 20.8783 21.765C21.18 21.2679 21.8007 20.0909 22.0473 19.5509C22.1198 19.3938 22.2184 19.1796 22.2677 19.071C22.317 18.9653 22.3576 18.871 22.3576 18.8653C22.3576 18.8596 22.3982 18.7682 22.4446 18.6653C22.4939 18.5625 22.549 18.4253 22.5694 18.3625C22.61 18.2339 22.5578 18.2568 23.1814 18.1054C24.2981 17.834 25.2495 17.4254 25.8528 16.954C26.3227 16.5826 26.6678 16.1598 26.8187 15.757C26.9028 15.5399 26.8999 15.477 26.8012 15.3856C26.7026 15.2913 26.6156 15.2885 26.459 15.3742C26.1486 15.5399 25.3916 15.9113 25.1711 16.0084C25.0348 16.0684 24.8724 16.1398 24.8086 16.1655C24.7448 16.1941 24.5359 16.2769 24.3445 16.3512C24.153 16.4255 23.9703 16.4941 23.9384 16.5084C23.9065 16.5198 23.7702 16.5712 23.6339 16.6226C23.4975 16.6712 23.3496 16.7312 23.3032 16.754C23.2075 16.8026 23.1379 16.7683 23.193 16.6998C23.2133 16.6769 23.2452 16.6112 23.2684 16.5483C23.2916 16.4884 23.3583 16.3084 23.4163 16.1512C23.6455 15.5284 23.9239 14.6799 24.095 14.0657C24.1443 13.8914 24.1966 13.7115 24.2111 13.6657C24.2546 13.5343 24.4344 12.8115 24.5011 12.4944C24.5359 12.3373 24.5765 12.1573 24.591 12.0945C24.6142 11.983 24.6577 11.7631 24.7071 11.5088C24.7216 11.4374 24.7419 11.3202 24.7506 11.2431C24.7622 11.1545 24.7825 11.1088 24.8115 11.1088C24.8347 11.1088 24.8521 11.1203 24.8521 11.1345C24.8521 11.1488 24.9884 11.3202 25.1537 11.5174C25.7774 12.2573 26.0587 12.6115 26.7142 13.4829C26.9318 13.7714 27.1377 14.04 27.1667 14.08C27.2682 14.2086 28.1848 15.5541 28.3385 15.7998C28.9273 16.7398 29.171 17.1654 29.4901 17.8082C30.0441 18.9196 30.2471 19.5138 30.4182 20.5166C30.4588 20.7566 30.4617 21.7593 30.4211 22.0164C30.3544 22.445 30.2384 22.9049 30.105 23.2792C30.0151 23.5306 29.7424 24.1534 29.6989 24.2048C29.6844 24.222 29.6293 24.3134 29.5771 24.4077C29.5249 24.5019 29.3769 24.7391 29.2435 24.9362C28.6547 25.8104 27.9818 26.5246 26.926 27.396C26.4387 27.7988 25.4032 28.5302 24.8811 28.8387C24.826 28.873 24.6635 28.973 24.5214 29.0615C24.3822 29.1501 24.2604 29.2215 24.2517 29.2215C24.243 29.2215 24.2024 29.2444 24.1618 29.273C23.8804 29.4672 22.3953 30.2272 21.4758 30.65C21.0582 30.8414 19.7355 31.3813 19.5151 31.4499C19.4745 31.4642 19.3323 31.5128 19.196 31.5642C18.6565 31.7613 17.6355 32.1013 17.1366 32.2498C16.9684 32.2984 16.8002 32.3498 16.7596 32.3641C16.719 32.3784 16.5507 32.4298 16.3825 32.4784C16.2143 32.527 16.046 32.5784 16.0054 32.5898C15.9648 32.6041 15.8749 32.6298 15.8024 32.6498C15.7299 32.6698 15.6399 32.6955 15.5993 32.7069C15.5587 32.7184 15.4688 32.7441 15.3963 32.7641C15.3238 32.7841 15.2339 32.8098 15.1933 32.8241C15.0627 32.8669 13.9982 33.1583 13.5313 33.2755C13.0469 33.3983 12.9511 33.4097 12.751 33.364C12.6814 33.3497 12.4697 33.3098 12.2782 33.2783C12.0868 33.244 11.8779 33.2069 11.8141 33.1926C11.7503 33.1783 11.5415 33.1326 11.35 33.0898C10.329 32.8698 9.66773 32.6612 9.0238 32.3641C8.56262 32.1499 8.17394 31.8499 8.17394 31.7042C8.17394 31.4356 8.76275 31.0242 9.65322 30.6728C9.87076 30.5871 10.4828 30.3814 10.6626 30.3329C10.7119 30.3186 10.8047 30.2929 10.8657 30.2757C10.9237 30.2586 11.0194 30.2357 11.0745 30.2214C11.1296 30.2072 11.3065 30.1643 11.4661 30.1243C11.6256 30.0843 11.7706 30.05 11.7909 30.05C11.8112 30.05 11.9011 30.0215 11.994 29.9872C12.2927 29.8786 12.5712 29.5529 12.6263 29.2444C12.664 29.0501 12.5538 28.8387 12.3652 28.7444C12.1825 28.6502 11.4081 28.7559 10.5669 28.993C10.4161 29.0358 10.2594 29.0787 10.1608 29.1044C10.0245 29.1415 9.27035 29.3901 9.18914 29.4272C9.14853 29.4444 9.08762 29.4701 9.05281 29.4815C9.0151 29.4958 8.95709 29.5187 8.92228 29.5329C8.88458 29.5444 8.66124 29.6501 8.42049 29.7643C7.9158 30.0043 7.48071 30.2729 7.23997 30.4986C7.14715 30.5871 7.06304 30.65 7.05433 30.6414C7.04273 30.6328 7.05143 30.5843 7.06884 30.5329C7.08624 30.4814 7.10074 30.39 7.10074 30.3272C7.10074 30.2643 7.11234 30.1329 7.12685 30.0386C7.14135 29.9415 7.17036 29.7558 7.18776 29.6215C7.20806 29.4872 7.25447 29.193 7.29508 28.9644C7.33569 28.7359 7.37339 28.5102 7.3821 28.4645C7.3879 28.4159 7.4053 28.3245 7.4198 28.2559C7.43721 28.1902 7.46041 28.0816 7.47491 28.0131C7.52712 27.7902 7.56773 27.6074 7.59674 27.4931C7.61414 27.4303 7.64024 27.3331 7.65185 27.2788C7.79107 26.7446 8.10143 25.8304 8.31897 25.3219C8.33928 25.2733 8.36538 25.2105 8.37698 25.179C8.40309 25.1162 8.464 24.9705 8.53941 24.7991C8.67574 24.4962 9.06151 23.7277 9.20654 23.4706C9.57491 22.8249 9.56621 22.8392 9.77214 22.5021C10.5234 21.2851 11.585 19.8909 12.8728 18.4282C13.0556 18.2196 13.2731 17.9739 13.3514 17.8825C13.4326 17.7911 13.6328 17.5654 13.801 17.3797C13.9692 17.1969 14.1839 16.9569 14.2796 16.8512C14.3753 16.7426 14.59 16.5055 14.7582 16.3227C14.9264 16.1398 15.1411 15.9027 15.2368 15.7941C15.3325 15.6856 15.5471 15.4484 15.7154 15.2656C15.8836 15.0828 16.0924 14.8514 16.1795 14.7514C16.2665 14.6542 16.4579 14.44 16.6 14.28C16.9626 13.8772 17.1685 13.64 17.3542 13.4229C17.4441 13.3201 17.5833 13.1572 17.6674 13.0629C18.3114 12.3144 19.4223 10.9403 19.8863 10.3089C20.4549 9.54039 20.5216 9.44611 20.977 8.78331C21.3917 8.1805 22.0879 7.09203 22.3431 6.65207C22.3837 6.58064 22.4301 6.50351 22.4446 6.48065C22.7637 6.00069 24.243 3.22094 24.243 3.10094C24.243 3.05524 24.2749 3.0181 24.3039 3.02952C24.3155 3.03524 24.4402 3.26379 24.5852 3.53805ZM34.099 29.6644C34.859 29.7443 36.0337 29.93 36.8168 30.0957C36.93 30.1215 37.0779 30.1529 37.1504 30.1672C37.2229 30.1815 37.3331 30.2043 37.3969 30.2186C37.4608 30.2357 37.5536 30.2557 37.6 30.2672C37.6812 30.2843 37.9393 30.35 38.2091 30.4271C39.4302 30.7671 40.4193 31.3042 40.4773 31.6613C40.4918 31.7585 40.4831 31.7756 40.3584 31.8927C40.2859 31.9642 40.1757 32.0499 40.1148 32.087C39.9291 32.2041 39.465 32.4355 39.2823 32.5041C39.0996 32.5727 39.0212 32.6041 38.9139 32.647C38.8762 32.6612 38.8008 32.6869 38.7457 32.7041C38.6906 32.7212 38.5659 32.7584 38.4701 32.7898C38.2787 32.8526 37.3766 33.0755 37.0344 33.1469C36.9155 33.1726 36.6921 33.2183 36.5413 33.2498C35.7697 33.4155 35.4449 33.4783 34.83 33.5783C34.6791 33.6012 34.4819 33.6354 34.3949 33.6497C34.215 33.6783 33.9598 33.7183 33.6494 33.764C33.5334 33.7811 33.3565 33.8069 33.2579 33.8211C31.7641 34.0383 29.783 34.204 27.3901 34.3068C25.1914 34.4011 24.4112 34.4182 24.3938 34.3668C24.388 34.3497 24.4083 34.3354 24.4402 34.3354C24.5069 34.3354 25.5627 33.9868 26.2675 33.7326C26.3488 33.704 26.4938 33.6497 26.5866 33.6183C26.6765 33.584 26.807 33.5326 26.8738 33.504C26.9434 33.4726 27.0101 33.4497 27.0275 33.4497C27.0449 33.4497 27.0797 33.4383 27.1087 33.424C27.1551 33.4012 27.2131 33.3755 27.3901 33.3069C27.4307 33.2898 27.4916 33.2669 27.5293 33.2498C27.7236 33.1669 28.1036 33.0098 28.2167 32.9641C28.82 32.7269 29.7946 32.2413 30.4124 31.8699C30.4965 31.8185 30.6271 31.7413 30.7025 31.6956C31.0157 31.5071 31.5639 31.1385 31.9729 30.8357C32.4573 30.4786 33.2347 29.8301 33.3304 29.7043C33.4029 29.6044 33.4783 29.6015 34.099 29.6644ZM41.6898 32.7412C41.6985 32.9926 41.652 34.0554 41.6172 34.4497C41.5737 34.9268 41.4925 35.641 41.4432 35.9495C41.4287 36.0438 41.4026 36.2238 41.3852 36.3495C41.3678 36.4752 41.3388 36.6409 41.3243 36.7209C41.3098 36.798 41.2837 36.9352 41.2663 37.0209C41.2228 37.2494 41.1328 37.6465 41.0922 37.7922C40.9733 38.235 40.6717 39.0835 40.486 39.4921C40.4454 39.5863 40.3903 39.7092 40.37 39.7635C40.3236 39.8806 39.9117 40.6748 39.8247 40.8205C39.7899 40.8748 39.729 40.9777 39.6884 41.0491C38.8269 42.5575 37.3447 44.0231 35.5261 45.1602C35.1954 45.3658 34.7168 45.6487 34.6965 45.6487C34.6878 45.6487 34.6443 45.6715 34.6037 45.703C34.5225 45.7572 33.5798 46.2286 33.3507 46.3286C33.2782 46.36 33.1592 46.4115 33.0867 46.4429C33.0142 46.4772 32.8837 46.5315 32.7967 46.5629C32.7097 46.5972 32.6023 46.64 32.553 46.6629C32.3297 46.7572 32.0106 46.8714 31.4508 47.0514C30.6532 47.3114 30.5314 47.3457 30.2181 47.42C30.163 47.4342 30.0644 47.46 30.0006 47.4742C29.9367 47.4914 29.8207 47.5199 29.7395 47.5371C29.6612 47.5542 29.5481 47.5799 29.493 47.5914C29.2841 47.6371 28.7214 47.7456 28.5358 47.7771C28.4807 47.7856 28.3617 47.8085 28.2747 47.8228C28.1036 47.8513 27.9093 47.8771 27.3756 47.9456C25.4003 48.1913 23.1031 48.177 21.0379 47.9028C20.8116 47.8742 20.6521 47.8485 20.2924 47.7914C20.0459 47.7485 19.5847 47.6628 19.3846 47.6199C19.3207 47.6085 19.1902 47.5799 19.0945 47.5599C18.9263 47.5257 18.584 47.4428 18.1663 47.3342C17.4006 47.1343 16.162 46.7086 15.5471 46.4315C15.463 46.3943 15.3876 46.3629 15.3789 46.3629C15.3528 46.3629 14.3057 45.8515 14.0621 45.7172C12.3623 44.7888 11.0629 43.7746 10.0129 42.5489C9.67933 42.1604 9.16013 41.4348 8.94259 41.0491C8.90198 40.9777 8.84107 40.8748 8.80626 40.8205C8.62643 40.5263 8.23196 39.7178 8.04052 39.2578C7.67795 38.3779 7.47781 37.7094 7.33569 36.878C7.32118 36.7923 7.28928 36.6123 7.26607 36.478C7.16165 35.8838 7.10944 35.4781 7.01083 34.5068C6.97022 34.084 6.94121 32.5641 6.97312 32.5641C6.99052 32.5641 7.06594 32.6298 7.14425 32.7098C7.31538 32.8812 7.54163 33.0555 7.78237 33.1983C7.9564 33.3012 8.4756 33.564 8.50461 33.564C8.51331 33.564 8.59452 33.5983 8.68734 33.6383C9.03251 33.7954 9.94908 34.0983 10.5234 34.2497C10.7061 34.2954 10.9034 34.3468 10.9585 34.3611C11.06 34.3897 11.4864 34.4896 11.6981 34.5354C11.8692 34.5725 12.0578 34.6125 12.2057 34.6468C12.2782 34.6611 12.3768 34.6811 12.4232 34.6896C12.4726 34.6953 12.5857 34.7153 12.6785 34.7325C14.0621 34.9925 15.5645 35.2067 17.1366 35.3639C17.3049 35.381 17.5601 35.4067 17.7022 35.421C17.8473 35.4353 18.1199 35.461 18.3114 35.4753C18.5028 35.4924 18.8102 35.5181 18.993 35.5353C20.4287 35.6553 22.6187 35.7353 24.4605 35.7353C26.8825 35.7324 29.6612 35.5981 31.5088 35.3924C31.6539 35.3753 31.8946 35.3496 32.0454 35.3353C32.6604 35.2724 32.8663 35.2496 33.2811 35.1924C33.5189 35.161 33.8351 35.1153 33.983 35.0925C34.128 35.0696 34.3775 35.0296 34.5341 35.0067C34.8155 34.9639 35.0504 34.9239 35.294 34.8782C35.3666 34.8639 35.5087 34.8382 35.6131 34.821C35.7175 34.8039 35.8539 34.7782 35.9177 34.7639C35.9815 34.7525 36.1062 34.7268 36.1932 34.7068C36.6979 34.6039 37.2925 34.4668 37.687 34.3639C38.2323 34.2211 38.3802 34.1782 38.8153 34.0383C39.6449 33.7669 39.7812 33.7126 40.399 33.4126C40.9066 33.164 41.1909 32.9812 41.4577 32.7298C41.5708 32.627 41.6665 32.547 41.6723 32.5527C41.6782 32.5584 41.6869 32.6441 41.6898 32.7412ZM43.6041 32.6641C44.0856 32.6898 44.599 32.7669 45.2429 32.9069C45.327 32.9269 45.5591 32.9955 45.91 33.1069C46.2465 33.2126 46.7831 33.4697 47.0993 33.6754C47.546 33.9668 48.0013 34.4668 48.1957 34.881C48.593 35.7324 48.4857 36.8152 47.8882 38.0208C47.6591 38.4836 47.485 38.7521 47.108 39.2178C46.9194 39.4549 46.2523 40.1206 46.0841 40.2463C46.029 40.2863 45.9129 40.3749 45.8288 40.4434C45.0834 41.0319 43.987 41.5833 42.8065 41.9604C42.5309 42.049 42.3569 42.0976 41.858 42.2175C41.5882 42.2833 40.6978 42.4204 40.5527 42.4204C40.4918 42.4204 40.5092 42.3775 40.6688 42.1461C40.8341 41.9004 40.8776 41.8319 41.127 41.3976C41.2228 41.2348 41.5447 40.6034 41.6607 40.3491C42.2641 39.035 42.6701 37.5951 42.9051 35.921C43.0298 35.0325 43.0907 34.2954 43.1139 33.3926C43.1226 33.0069 43.1371 32.6755 43.1429 32.6527C43.1516 32.6298 43.1806 32.6212 43.2212 32.6298C43.256 32.6412 43.4301 32.6555 43.6041 32.6641ZM17.4789 48.5599C17.505 48.577 17.6123 48.6084 17.7167 48.6341C17.8212 48.6598 17.9517 48.6941 18.0068 48.7084C18.0619 48.7256 18.1605 48.7513 18.2243 48.7656C18.2881 48.7827 18.3868 48.8055 18.4419 48.817C18.964 48.9427 20.0894 49.1541 20.7333 49.2455C21.6818 49.3798 21.9022 49.4055 22.5026 49.4541C23.0886 49.4998 25.6062 49.4998 26.2443 49.4512C27.2218 49.3826 27.625 49.3284 28.8693 49.1055C29.3798 49.0141 29.9367 48.9027 30.2616 48.8227C30.4443 48.7798 31.0331 48.6256 31.155 48.5913C31.2188 48.5741 31.2739 48.5656 31.2855 48.5741C31.2942 48.5827 31.2739 48.6456 31.2391 48.7113C31.1811 48.8284 31.0273 49.1741 30.862 49.5569C30.7083 49.9255 30.4907 50.0683 29.8352 50.2369C28.8026 50.5083 27.9122 50.634 26.3314 50.734C25.7513 50.7711 23.2423 50.7711 22.6187 50.734C21.9515 50.694 21.3714 50.6511 21.0814 50.6168C20.5042 50.554 20.101 50.4997 19.8341 50.4483C19.7616 50.434 19.6195 50.4083 19.5151 50.3883C19.2221 50.3368 18.5637 50.1654 18.3607 50.0883C17.9981 49.954 17.9633 49.9055 17.5659 49.0198C17.4702 48.8084 17.3803 48.6227 17.3658 48.6056C17.2991 48.5399 17.3774 48.5084 17.4789 48.5599Z" fill="white"/>
<path d="M0.0437147 47.5856C-0.0926109 47.7313 0.0582174 47.8885 0.951586 48.5484C1.46788 48.9284 2.47147 49.5826 2.88045 49.8083C2.96166 49.8512 3.10959 49.934 3.21401 49.9911C3.75351 50.2883 3.91884 50.3768 4.52506 50.6711C4.89053 50.8482 5.19218 50.9911 5.20088 50.9911C5.20669 50.9911 5.3024 51.0311 5.40972 51.0796C5.51995 51.1282 5.67367 51.1968 5.75199 51.2339C5.8332 51.2682 5.96373 51.3253 6.04204 51.3625C6.18127 51.4225 6.28569 51.4682 6.47713 51.5482C6.52643 51.5682 6.62215 51.6053 6.69467 51.6339C6.76718 51.6596 6.8716 51.6996 6.92671 51.7253C6.98182 51.7481 7.05723 51.7796 7.09494 51.7938C7.12975 51.8081 7.18776 51.831 7.22547 51.8453C8.52201 52.3624 9.92007 52.8252 11.4226 53.2337C11.6865 53.308 11.9853 53.3909 12.0897 53.4194C12.3246 53.4823 13.5138 53.7708 13.8735 53.848C13.9373 53.8622 14.0475 53.8851 14.1201 53.9022C14.1926 53.9165 14.2825 53.9365 14.3231 53.9422C14.3637 53.9508 14.6306 54.0022 14.9177 54.0594C15.2049 54.1165 15.5181 54.1765 15.6138 54.1936C15.8256 54.2308 15.9967 54.2622 16.2085 54.3022C16.5681 54.3679 17.827 54.5622 18.2823 54.6193C18.4274 54.6365 18.6362 54.6622 18.7464 54.6765C18.9379 54.7022 19.1293 54.7222 19.7848 54.7907C20.3098 54.845 21.2902 54.9164 22.1401 54.9679C22.9087 55.0107 26.0993 55.0107 26.7809 54.9679C27.0681 54.9479 27.5061 54.9193 27.7526 54.905C28.8751 54.8307 30.0615 54.6936 31.3638 54.4879C32.5269 54.3051 32.7677 54.2651 33.2927 54.1594C33.4377 54.1308 33.6494 54.0908 33.8815 54.0479C33.9627 54.0337 34.1512 53.9965 34.2934 53.9651C34.4384 53.9337 34.653 53.888 34.7719 53.8651C34.8909 53.8394 35.0359 53.808 35.091 53.7937C35.1461 53.7765 35.2592 53.7508 35.3376 53.7337C35.4188 53.7165 35.529 53.6908 35.5841 53.6765C35.6392 53.6623 35.7639 53.6308 35.8597 53.6108C36.0598 53.5623 36.637 53.4137 36.9329 53.3309C37.046 53.2994 37.1881 53.2623 37.2519 53.2423C38.183 52.988 38.998 52.7366 39.8624 52.4338C40.0712 52.3624 40.2975 52.2824 40.37 52.2595C40.5237 52.2052 41.0777 51.9995 41.1822 51.9567C41.2228 51.9396 41.2837 51.9138 41.3214 51.9024C41.3562 51.8881 41.4142 51.8653 41.4519 51.851C41.4867 51.8396 41.5505 51.8138 41.5969 51.7938C41.6404 51.7767 41.7043 51.751 41.742 51.7367C41.8377 51.6996 42.1074 51.591 42.2467 51.531C42.3163 51.4996 42.3772 51.4767 42.3859 51.4767C42.3917 51.4767 42.4671 51.4453 42.5512 51.4082C42.7862 51.3053 43.3489 51.0511 43.5606 50.9568C43.665 50.9082 43.9783 50.7568 44.2567 50.6197C44.7005 50.3997 44.8978 50.294 45.5765 49.9197C46.406 49.4626 47.6272 48.637 48.2972 48.0827C48.6221 47.8113 48.6975 47.6828 48.5843 47.5828C48.4828 47.4914 48.3813 47.5228 47.9694 47.7656C47.485 48.0542 46.4176 48.6056 45.8085 48.8827C45.6809 48.9398 45.4489 49.0455 45.2893 49.1169C45.1327 49.1884 44.9993 49.2484 44.9935 49.2484C44.9877 49.2484 44.9152 49.2798 44.831 49.3169C44.7469 49.3541 44.5932 49.4198 44.4888 49.4626C44.3844 49.5055 44.2625 49.5569 44.2132 49.5769C44.1668 49.5998 44.0682 49.6369 43.9957 49.6626C43.9232 49.6883 43.8362 49.7226 43.8013 49.7369C43.7636 49.7512 43.7056 49.774 43.6708 49.7883C42.9689 50.0683 41.5041 50.574 40.6891 50.8196C40.5701 50.8539 40.399 50.9082 40.312 50.9339C40.225 50.9625 40.0945 50.9996 40.0219 51.0196C39.9494 51.0396 39.8595 51.0653 39.8189 51.0796C39.5782 51.1596 38.1308 51.5539 37.7247 51.651C37.5623 51.6881 37.4056 51.7281 37.3389 51.7453C37.307 51.751 37.1678 51.7853 37.0286 51.8167C36.8864 51.851 36.6631 51.9024 36.5268 51.9338C35.9409 52.0681 35.7958 52.1024 35.7001 52.1195C35.645 52.131 35.5522 52.151 35.4971 52.1624C34.9257 52.2852 33.6378 52.5366 33.2927 52.5909C33.1157 52.6195 32.672 52.6909 32.4167 52.7338C32.0744 52.7909 31.9091 52.8166 31.6829 52.848C31.5552 52.8652 31.3725 52.8909 31.2768 52.9052C31.1811 52.9195 30.978 52.9452 30.8272 52.9623C30.6764 52.9795 30.4617 53.0052 30.3486 53.0195C29.5858 53.1166 28.5648 53.2109 27.1 53.3109C26.3836 53.3623 22.5142 53.3623 21.7775 53.3109C21.4816 53.2909 21.0466 53.2623 20.8058 53.2452C20.2547 53.2109 19.7442 53.168 19.4281 53.1337C19.2917 53.1194 19.0452 53.0937 18.877 53.0766C18.2939 53.0166 17.0554 52.8623 16.6145 52.7909C16.5275 52.7766 16.3564 52.7509 16.2375 52.7338C16.1185 52.7166 15.9561 52.6909 15.8749 52.6766C15.7966 52.6623 15.6312 52.6366 15.5123 52.6195C15.3934 52.5995 15.1701 52.5624 15.0192 52.5338C14.8684 52.5052 14.5667 52.4481 14.3521 52.4052C13.9663 52.3338 13.8213 52.3052 12.983 52.131C12.8989 52.1138 12.7771 52.0881 12.7133 52.0767C12.6495 52.0624 12.5335 52.0367 12.4522 52.0195C12.3739 52.0024 12.2521 51.9738 12.1854 51.9595C11.8286 51.8824 11.6749 51.8481 11.4661 51.7938C11.4023 51.7767 11.1673 51.7196 10.944 51.6653C10.3784 51.5282 10.039 51.4396 9.66773 51.3339C9.49369 51.2825 9.32256 51.2368 9.29066 51.2282C9.25875 51.2196 9.08182 51.1682 8.89908 51.1139C8.71635 51.0568 8.52201 51.0025 8.4727 50.9882C8.24066 50.9254 8.17394 50.9054 7.9419 50.8339C7.27768 50.6254 6.43072 50.3397 5.91152 50.1483C5.71138 50.074 5.47644 49.9883 5.38942 49.9569C5.3024 49.9254 5.19218 49.8826 5.14287 49.8626C5.09647 49.8426 4.97754 49.7969 4.88182 49.7626C4.78611 49.7255 4.69619 49.6855 4.67879 49.6712C4.66428 49.6597 4.63528 49.6483 4.61497 49.6483C4.59467 49.6483 4.51346 49.6198 4.43804 49.5883C4.28141 49.5198 4.2408 49.5026 3.82313 49.3255C3.53017 49.2026 3.32133 49.1084 2.82244 48.8827C2.69481 48.8255 2.34385 48.6541 2.03929 48.5027C1.48819 48.2284 1.05891 47.997 0.371476 47.6085C0.217747 47.5228 0.107527 47.5142 0.0437147 47.5856Z" fill="white"/>
<path d="M11.3529 22.2021C11.2311 22.4421 11.1325 22.6535 11.1325 22.6678C11.1325 22.685 11.0977 22.7792 11.057 22.8821C11.0135 22.9821 10.97 23.1021 10.9555 23.1506C10.9439 23.1963 10.9178 23.2878 10.9004 23.3506C10.7351 23.962 10.6829 24.7105 10.7699 25.2676C10.8105 25.5304 10.8279 25.6047 10.8975 25.8561C11.0222 26.3075 11.3732 26.9303 11.7619 27.3788C12.0606 27.7274 12.7336 28.2673 13.1715 28.5044C13.305 28.5787 13.3543 28.5787 13.3804 28.513C13.4152 28.4387 13.3978 28.373 13.2934 28.1673C13.2383 28.0645 13.1686 27.9131 13.1338 27.8359C13.099 27.7559 13.041 27.6274 13.0062 27.5502C12.9134 27.3445 12.7278 26.8589 12.6727 26.6789C12.6552 26.6246 12.6175 26.5018 12.5856 26.4075C12.4812 26.0789 12.4377 25.919 12.3652 25.6076C12.2347 25.0476 12.1709 24.3762 12.2521 24.4591C12.2608 24.4677 12.2869 24.5591 12.3072 24.6648C12.3304 24.7705 12.3913 24.9676 12.4406 25.1019C12.4899 25.239 12.5508 25.4019 12.574 25.4647C12.6233 25.599 12.9279 26.2104 13.0352 26.3932C13.2296 26.7189 13.5254 27.0903 13.7952 27.3417C14.0388 27.5731 14.091 27.5645 14.2796 27.2674C14.4188 27.0531 14.5319 26.7789 14.616 26.4618C14.674 26.2418 14.6827 26.1389 14.6827 25.6933C14.6827 25.259 14.6711 25.1419 14.6189 24.9448C14.4884 24.4477 14.2418 23.9477 13.9286 23.5363C13.6095 23.1192 13.0671 22.6135 12.5682 22.2736C12.4029 22.1593 11.9707 21.9107 11.8431 21.8536C11.7967 21.8336 11.7329 21.805 11.7068 21.7907C11.6778 21.7765 11.6372 21.765 11.614 21.765C11.5878 21.765 11.4834 21.9422 11.3529 22.2021Z" fill="white"/>
</svg>
