<svg width="992" height="1090" viewBox="0 0 992 1090" fill="none" xmlns="http://www.w3.org/2000/svg">
<path d="M479.657 0.930101C479.139 1.49629 478.679 2.17571 478.679 2.40218C478.679 2.68527 477.01 6.19562 474.996 10.3288C472.981 14.4053 469.529 21.426 467.342 25.9555C453.07 55.1706 435.058 89.7079 427.347 102.56C426.484 104.032 425.735 105.335 425.735 105.448C425.735 105.561 421.535 112.808 420.096 115.13C419.693 115.752 416.585 120.848 413.19 126.453C403.983 141.57 394.027 156.518 384.589 169.597C382.863 172.031 380.964 174.636 380.446 175.428C379.353 176.957 376.303 181.147 368.707 191.281C358.693 204.757 342.638 224.8 328.827 241.049C324.971 245.522 320.77 250.504 319.389 252.09C313.749 258.714 310.066 262.904 296.831 277.625C294.759 279.946 291.421 283.683 289.349 285.947C281.638 294.61 268.23 309.444 265.468 312.445C263.856 314.143 260.749 317.597 258.562 320.088C256.375 322.58 254.419 324.731 254.246 324.901C253.958 325.184 236.752 344.604 230.939 351.229C222.307 361.024 204.123 382.991 201.13 387.181C200.612 387.974 199.404 389.503 198.541 390.635C181.622 412.829 165.336 438.364 153.942 460.502C149.108 469.957 144.331 479.752 144.331 480.319C144.331 480.432 143.583 482.187 142.72 484.112C141.166 487.509 138.865 493.058 135.469 501.777C133.858 505.854 128.333 522.103 127.067 526.463C126.665 527.878 126.147 529.633 125.916 530.426C125.283 532.464 123.269 540.051 121.888 545.996C121.198 548.77 120.45 552.111 120.162 553.356C118.608 559.754 115.558 576.06 114.407 584.214C111.587 603.294 110.494 616.316 109.861 636.982C108.595 679.616 112.853 719.475 122.464 754.918C124.996 764.147 126.319 768.563 127.125 770.035C127.413 770.601 127.643 771.394 127.643 771.847C127.643 772.243 128.161 773.829 128.736 775.357C129.369 776.886 130.405 779.66 131.096 781.529C133.052 786.851 134.031 789.116 139.728 801.685C142.95 808.706 149.28 820.652 152.963 826.541C159.581 837.241 161.826 840.469 170.228 851.17C181.564 865.664 207.633 890.519 225.127 903.542C226.623 904.617 228.868 906.259 230.076 907.222C231.342 908.128 233.356 909.656 234.507 910.562C248.031 920.64 271.05 934.059 285.494 940.287C286.99 940.966 289.292 941.986 290.673 942.552C291.997 943.175 297.636 945.439 303.161 947.591C316.281 952.743 316.339 952.8 316.684 954.159C316.857 954.838 317.26 956.253 317.547 957.329C317.835 958.405 318.583 961.066 319.274 963.274C319.907 965.426 320.712 968.257 321.115 969.502C323.417 977.599 327.791 989.602 330.265 994.584C334.869 1003.93 342.177 1010.78 353.514 1016.38C358.291 1018.7 364.908 1021.19 369.8 1022.5C374.864 1023.86 376.245 1024.2 379.986 1024.93C394.66 1027.82 415.319 1030.08 445.877 1032.18C458.825 1033.08 513.897 1033.03 525.291 1032.12C544.742 1030.59 557.403 1029.29 569.315 1027.54C571.214 1027.25 574.724 1026.74 577.084 1026.4C588.881 1024.76 602.692 1020.63 612.532 1015.87C626.401 1009.19 633.307 1001.89 638.083 988.752C640.961 980.826 644.011 971.144 646.14 962.991C646.543 961.576 647.061 959.82 647.291 959.028C647.521 958.235 648.039 956.537 648.384 955.178C648.787 953.819 649.362 952.63 649.765 952.517C653.103 951.497 661.505 948.383 664.44 947.081C666.396 946.175 668.238 945.439 668.526 945.439C668.756 945.439 669.734 945.1 670.655 944.647C671.575 944.194 673.647 943.288 675.201 942.608C685.905 937.966 689.012 936.437 696.206 932.53C707.37 926.416 722.965 916.507 732.46 909.487C747.307 898.503 762.327 885.877 771.304 876.988L775.908 872.401H784.367C812.738 872.401 841.914 867.929 863.955 860.172C866.199 859.379 869.134 858.36 870.572 857.907C873.22 857.058 873.565 856.888 878.054 854.963C879.492 854.397 881.794 853.378 883.233 852.811C896.641 847.206 916.725 835.09 930.364 824.389C942.448 814.934 953.843 803.78 961.036 794.325C977.034 773.432 986.414 753.446 990.212 732.271C992.687 718.229 992.629 709.227 989.809 694.053C988.946 689.467 985.896 680.805 983.479 675.935C976.056 661.101 960.978 646.041 943.369 636.019C936.866 632.283 923.573 626.451 916.322 624.13C897.792 618.185 880.988 615.127 860.674 613.882L854.517 613.542L854.172 609.748C853.481 601.539 850.316 578.438 849.28 573.739C848.992 572.493 848.474 569.832 848.129 567.794C847.784 565.756 847.266 563.095 846.978 561.849C846.69 560.604 846.173 558.169 845.827 556.47C845.137 553.017 843.238 545.034 842.317 541.467C841.972 540.221 841.454 538.183 841.108 536.937C840.763 535.691 840.303 534.05 840.073 533.257C839.842 532.464 839.324 530.709 838.922 529.294C838.519 527.878 837.713 525.217 837.08 523.349C836.505 521.48 835.814 519.159 835.526 518.253C833.225 510.723 825.571 490.906 821.888 482.98C821.14 481.338 820.507 479.866 820.507 479.696C820.507 478.733 807.098 452.576 803.53 446.631C792.769 428.513 787.417 420.077 779.706 409.262C774.584 402.072 772.743 399.581 766.413 391.145C764.974 389.276 763.19 386.898 762.384 385.822C759.852 382.482 748.976 368.95 746.559 366.232C745.293 364.76 742.818 361.873 741.092 359.721C739.366 357.626 736.373 354.059 734.417 351.851C721.066 336.451 711.916 325.977 703.399 316.465C698.047 310.407 692.58 304.292 691.314 302.82C689.242 300.442 680.898 291.156 671.23 280.455C669.216 278.247 666.742 275.473 665.706 274.227C664.612 272.982 662.541 270.66 661.102 269.132C659.663 267.546 657.764 265.395 656.844 264.319C655.923 263.243 654.254 261.318 653.103 260.016C651.952 258.771 649.075 255.487 646.715 252.712C644.356 249.995 641.363 246.541 640.097 245.069C636.414 240.823 632.789 236.52 630.89 234.255C629.969 233.066 626.574 229.046 623.409 225.252C620.244 221.516 617.021 217.609 616.215 216.59C615.41 215.571 612.302 211.721 609.252 207.984C593.887 188.96 570.696 156.971 558.496 137.777C551.303 126.51 549.634 123.792 546.123 117.96C544.052 114.507 541.347 109.921 540.081 107.769C538.815 105.561 536.916 102.277 535.88 100.409C534.787 98.5403 533.003 95.3697 531.967 93.3314C530.873 91.2932 528.917 87.7262 527.651 85.4048C524.198 79.1768 504.229 39.8836 495.943 22.8981C484.203 -1.05155 484.951 0.194061 482.649 0.0242056C481.268 -0.0890314 480.347 0.194061 479.657 0.930101ZM487.771 70.1179C498.82 91.3498 513.379 118.13 514.933 120.225C515.221 120.508 516.084 122.037 516.947 123.622C520.63 130.19 529.032 143.835 534.384 151.932C536.456 155.046 538.412 158.103 538.757 158.726C539.103 159.349 542.44 164.331 546.181 169.766C568.049 201.812 591.298 231.48 621.97 266.584C633.364 279.606 635.896 282.494 638.716 285.551C640.212 287.08 643.032 290.25 645.046 292.572C650.801 299.083 654.484 303.216 662.426 311.935C666.511 316.408 672.209 322.749 675.086 325.977C678.021 329.204 681.704 333.337 683.258 335.092C684.869 336.847 688.322 340.811 691.026 343.868C693.731 346.982 696.954 350.662 698.277 352.078C699.543 353.493 701.327 355.532 702.306 356.664C703.226 357.796 706.334 361.363 709.154 364.534C712.031 367.761 714.966 371.215 715.771 372.234C716.577 373.196 721.469 379.198 726.705 385.539C736.546 397.486 737.006 398.052 743.682 406.771C751.853 417.472 761.866 431.683 766.988 439.836C768.024 441.535 770.153 444.932 771.707 447.367C773.203 449.801 774.469 451.953 774.469 452.123C774.469 452.292 774.93 453.085 775.505 453.878C777.98 457.388 788.856 477.827 793.057 486.83C796.625 494.417 797.315 496.059 800.308 503.362C806.523 518.706 810.091 529.463 814.234 545.147C815.5 550.016 815.788 551.262 817.86 561.283C820.276 573.173 820.679 575.664 823.096 593.272C823.326 594.688 823.672 597.972 823.959 600.633C824.247 603.294 824.593 605.898 824.823 606.408C825.513 608.05 823.729 607.597 822.406 605.785C819.874 602.501 807.213 594.178 799.214 590.555C785.863 584.553 776.023 580.986 762.672 577.363C761.406 577.023 759.737 576.513 758.932 576.23C753.752 574.588 727.453 568.813 714.908 566.605C713.009 566.265 710.305 565.813 708.866 565.529C704.55 564.737 690.278 562.755 687.631 562.529L685.674 562.415L687.804 559.924C691.372 555.734 698.277 545.203 701.557 538.919C705.068 532.181 709.096 522.443 712.319 512.874C713.585 509.307 715.599 503.306 716.922 499.569C719.512 492.322 719.685 489.887 717.786 487.056C714.39 481.904 704.665 481.055 696.781 485.188C691.89 487.736 690.796 489.208 688.494 495.889C682.394 513.95 678.424 522.952 671.46 534.333C662.541 549.11 649.017 564.624 633.767 577.759C629.048 581.779 618.69 590.045 616.446 591.574C615.755 592.027 612.763 594.122 609.77 596.217C604.246 600.067 591.701 607.993 591.125 607.993C590.952 607.993 590.089 608.446 589.284 609.069C588.42 609.635 586.464 610.824 584.852 611.617C583.299 612.466 581.112 613.655 580.018 614.278C572.94 618.411 550.094 628.942 538.527 633.472C537.089 634.038 533.866 635.34 531.334 636.302C521.608 640.153 498.82 647.853 491.051 649.891C490.13 650.174 486.62 651.193 483.282 652.156C473.269 655.1 471.197 655.723 462.278 658.101C456.35 659.686 445.704 662.347 442.712 662.97C441.158 663.31 438.914 663.819 437.82 664.046C431.49 665.404 408.644 669.821 399.552 671.349C386.546 673.614 381.942 674.577 377.511 675.992C373.54 677.294 375.555 677.407 351.212 674.803C338.322 673.444 334.811 673.104 330.323 672.765C327.215 672.538 325.604 672.142 325.777 671.746C325.892 671.406 326.582 671.066 327.388 670.953C328.136 670.84 330.956 670.047 333.661 669.198C336.365 668.292 342.062 666.537 346.321 665.178C350.579 663.876 354.608 662.573 355.241 662.347C355.874 662.064 356.909 661.724 357.542 661.611C360.995 660.705 391.84 649.721 398.688 646.947C399.494 646.607 400.703 646.097 401.451 645.871C403.925 644.909 405.882 644.116 406.86 643.606C407.436 643.323 408.126 643.097 408.471 643.097C408.817 643.097 410.313 642.531 411.809 641.908C416.413 639.869 417.852 639.247 421.132 638.001C422.858 637.322 426.253 635.906 428.613 634.774C430.972 633.698 434.08 632.339 435.518 631.773C442.021 629.169 465.961 617.618 474.65 612.919C483.858 607.88 485.124 607.144 494.274 601.709C510.157 592.367 529.953 578.778 549.634 563.831C568.567 549.45 589.226 527.991 603.037 508.345C608.907 500.022 617.712 484.395 620.186 477.771C620.589 476.695 621.222 475.166 621.51 474.374C621.855 473.581 622.315 472.449 622.603 471.826C623.812 468.938 626.574 460.049 627.61 455.69C631.063 441.705 631.465 438.081 631.408 422.568C631.35 408.583 630.545 400.543 628.243 391.428C627.897 390.182 627.437 388.257 627.149 387.181C626.229 383.331 625.25 379.991 623.006 373.31C620.819 366.742 620.129 364.817 619.035 362.722C618.748 362.156 618.517 361.476 618.517 361.137C618.517 360.854 617.769 358.985 616.906 357.06C615.985 355.079 614.892 352.587 614.489 351.512C611.094 342.962 596.534 316.521 587.787 303.103C574.897 283.343 565.459 270.038 547.965 247.107C542.325 239.69 537.146 232.896 536.513 232.047C534.096 228.933 521.551 213.532 519.594 211.324C518.443 210.079 516.084 207.304 514.358 205.21C498.82 186.242 485.987 172.031 483.167 170.559C480.865 169.37 477.355 169.54 475.629 170.955C473.845 172.258 470.967 178.089 470.392 181.373C470.162 182.619 469.759 186.186 469.471 189.3C469.183 192.414 468.665 196.604 468.32 198.642C467.975 200.68 467.457 203.737 467.169 205.436C466.881 207.135 466.421 209.796 466.076 211.381C465.213 215.967 464.292 220.836 463.774 223.554C462.911 228.083 458.48 247.447 456.983 252.995C456.178 255.94 455.315 259.337 455.027 260.469C454.048 264.432 453.415 266.867 452.898 268.849C452.552 269.924 451.919 272.359 451.401 274.227C450.883 276.096 450.25 278.247 449.963 279.04C449.675 279.833 448.869 282.38 448.179 284.702C446.74 289.288 439.777 309.614 437.878 314.71C436.727 317.88 434.483 323.769 431.548 331.525C427.347 342.736 419.751 360.514 413.708 373.31C406.975 387.464 392.186 415.377 388.79 420.133C388.215 420.926 387.755 421.719 387.755 421.888C387.755 422.681 375.152 442.667 367.268 454.387C356.737 470.071 344.652 485.98 332.164 500.701C327.158 506.646 319.101 516.101 314.382 521.65C302.298 535.918 295.852 544.524 287.911 557.037C283.537 563.887 278.703 573.626 275.596 581.666C274.848 583.534 274.1 585.572 273.812 586.195C273.582 586.818 273.064 588.46 272.661 589.875C272.258 591.291 271.74 593.046 271.452 593.839C269.784 598.651 268.115 611.73 268.518 616.486C268.748 619.317 270.417 621.185 272.603 621.185C273.869 621.185 275.308 620.449 277.667 618.581C286.299 611.673 300.168 603.747 309.779 600.123C311.678 599.387 313.749 598.595 314.382 598.312C320.195 595.82 341.257 590.158 358.406 586.535C399.379 577.759 422.11 570.229 441.849 558.848C451.401 553.356 453.703 550.073 449.905 547.298C448.524 546.336 447.258 546.223 434.77 546.279C410.773 546.279 386.373 548.374 368.304 551.941C356.794 554.206 341.084 558.679 334.294 561.679C332.855 562.302 330.726 563.208 329.632 563.661C323.647 566.209 312.598 572.041 310.584 573.796C309.779 574.532 308.34 574.871 308.34 574.362C308.34 573.796 312.541 566.945 316.166 561.566C319.619 556.47 322.957 552.054 330.783 542.033C333.085 539.089 336.595 534.899 339.127 532.068C340.394 530.652 343.904 526.746 346.896 523.349C349.889 519.952 353.802 515.592 355.528 513.724C359.154 509.76 369.915 497.417 372.505 494.19C373.483 493.001 376.073 489.887 378.374 487.283L382.46 482.47L388.733 481.791C392.128 481.394 397.307 480.715 400.127 480.262C403.004 479.809 406.745 479.186 408.471 478.903C410.198 478.62 414.341 477.884 417.679 477.205C421.017 476.525 424.354 475.846 425.16 475.676C427.75 475.223 432.066 474.26 438.281 472.675C439.432 472.392 442.079 471.769 444.15 471.26C446.222 470.75 449.848 469.844 452.207 469.221C454.566 468.599 457.329 467.863 458.249 467.636C460.954 466.9 482.074 459.936 485.584 458.521C487.311 457.841 489.67 456.935 490.763 456.426C491.857 455.973 493.698 455.18 494.792 454.67C506.128 449.858 515.969 444.196 524.141 437.798C536.283 428.286 540.426 419.284 533.406 417.585C532.197 417.302 523.392 420.19 515.508 423.474C513.609 424.266 503.539 427.55 498.244 429.079C495.885 429.758 493.295 430.551 492.49 430.777C490.878 431.287 489.21 431.683 479.427 434.175C475.801 435.024 465.27 437.458 459.285 438.761C457.904 439.044 455.717 439.497 454.394 439.836C453.013 440.12 447.546 441.252 442.136 442.384C433.389 444.196 426.599 445.668 419.693 447.197C418.427 447.48 415.435 448.159 413.075 448.669C410.716 449.122 407.838 449.745 406.687 449.971C405.594 450.198 404.328 450.594 403.983 450.82C402.947 451.443 402.544 450.028 403.465 449.009C404.155 448.216 407.666 442.497 411.349 436.156C411.867 435.194 413.19 433.042 414.226 431.344C420.211 421.492 432.526 398.165 437.417 387.464C438.856 384.35 440.813 380.104 441.791 377.952C442.769 375.858 443.575 373.989 443.575 373.876C443.575 373.763 444.381 371.951 445.301 369.913C446.28 367.874 447.373 365.157 447.776 363.911C448.582 361.363 447.546 361.816 459.918 358.815C482.074 353.437 500.949 345.34 512.919 335.998C522.241 328.638 529.09 320.258 532.082 312.275C533.751 307.972 533.693 306.726 531.737 304.915C529.78 303.046 528.054 302.99 524.946 304.688C518.789 307.972 503.769 315.332 499.395 317.257C496.691 318.446 493.468 319.862 492.202 320.371C490.936 320.938 486.793 322.58 482.995 324.052C479.196 325.524 475.571 326.883 474.938 327.166C474.305 327.392 471.6 328.411 468.896 329.43C466.191 330.393 463.256 331.582 462.335 332.035C460.436 332.997 459.055 332.318 460.148 330.959C460.551 330.506 461.184 329.204 461.645 327.958C462.105 326.769 463.429 323.202 464.58 320.088C469.126 307.746 474.65 290.93 478.045 278.757C479.024 275.303 480.06 271.736 480.347 270.83C481.211 268.226 484.778 253.901 486.102 247.617C486.793 244.503 487.598 240.936 487.886 239.69C488.346 237.482 489.21 233.122 490.188 228.083C490.476 226.668 490.878 224.347 491.051 222.818C491.281 221.063 491.684 220.157 492.26 220.157C492.72 220.157 493.065 220.383 493.065 220.666C493.065 220.949 495.77 224.347 499.05 228.253C511.423 242.917 517.005 249.938 530.01 267.207C534.326 272.925 538.412 278.247 538.988 279.04C541.002 281.588 559.187 308.255 562.237 313.124C573.919 331.752 578.752 340.188 585.083 352.927C596.074 374.952 600.102 386.728 603.498 406.601C604.303 411.357 604.361 431.23 603.555 436.326C602.232 444.819 599.93 453.934 597.283 461.351C595.499 466.334 590.089 478.677 589.226 479.696C588.938 480.036 587.845 481.847 586.809 483.716C585.773 485.584 582.838 490.283 580.191 494.19C568.509 511.515 555.158 525.67 534.211 542.939C524.543 550.922 503.999 565.416 493.641 571.531C492.547 572.21 489.325 574.192 486.505 575.947C483.743 577.702 481.326 579.118 481.153 579.118C480.98 579.118 480.175 579.571 479.369 580.137C473.787 583.987 444.323 599.048 426.081 607.427C417.794 611.221 391.553 621.921 387.179 623.28C386.373 623.563 383.554 624.526 380.849 625.545C370.145 629.452 349.889 636.189 339.991 639.133C336.653 640.096 333.315 641.115 332.51 641.398C331.704 641.681 328.366 642.7 325.029 643.663C321.691 644.625 318.353 645.645 317.547 645.871C316.742 646.154 314.958 646.664 313.519 647.06C312.08 647.456 310.297 647.966 309.491 648.192C308.685 648.419 306.901 648.928 305.463 649.325C304.024 649.721 302.24 650.231 301.434 650.514C298.845 651.363 277.725 657.138 268.46 659.459C258.85 661.894 256.951 662.121 252.98 661.215C251.599 660.932 247.398 660.139 243.6 659.516C239.802 658.837 235.658 658.101 234.392 657.818C233.126 657.534 228.983 656.629 225.185 655.779C204.928 651.42 191.808 647.286 179.032 641.398C169.882 637.152 162.171 631.207 162.171 628.319C162.171 622.997 173.853 614.844 191.52 607.88C195.836 606.181 207.978 602.105 211.546 601.142C212.524 600.859 214.366 600.35 215.574 600.01C216.725 599.67 218.624 599.217 219.718 598.934C220.811 598.651 224.322 597.802 227.487 597.009C230.652 596.217 233.529 595.537 233.932 595.537C234.335 595.537 236.119 594.971 237.96 594.292C243.887 592.14 249.412 585.686 250.505 579.571C251.253 575.721 249.067 571.531 245.326 569.663C241.701 567.794 226.336 569.889 209.647 574.588C206.655 575.438 203.547 576.287 201.591 576.796C198.886 577.533 183.924 582.458 182.312 583.194C181.507 583.534 180.298 584.044 179.608 584.27C178.86 584.553 177.709 585.006 177.018 585.289C176.27 585.516 171.839 587.611 167.062 589.875C157.049 594.631 148.417 599.953 143.641 604.426C141.799 606.181 140.131 607.427 139.958 607.257C139.728 607.087 139.9 606.125 140.246 605.106C140.591 604.087 140.879 602.275 140.879 601.029C140.879 599.784 141.109 597.179 141.397 595.311C141.684 593.386 142.26 589.706 142.605 587.044C143.008 584.383 143.929 578.552 144.734 574.022C145.54 569.493 146.288 565.02 146.461 564.114C146.576 563.151 146.921 561.34 147.209 559.981C147.554 558.679 148.014 556.527 148.302 555.168C149.338 550.752 150.144 547.128 150.719 544.864C151.064 543.618 151.582 541.693 151.813 540.617C154.575 530.03 160.732 511.912 165.048 501.834C165.451 500.871 165.969 499.626 166.199 499.003C166.717 497.757 167.926 494.87 169.422 491.472C172.127 485.471 179.78 470.241 182.658 465.145C189.966 452.349 189.793 452.632 193.879 445.951C208.784 421.832 229.846 394.202 255.397 365.213C259.022 361.08 263.338 356.211 264.892 354.399C266.503 352.587 270.474 348.115 273.812 344.434C277.15 340.811 281.408 336.055 283.307 333.96C285.206 331.808 289.465 327.109 292.802 323.485C296.14 319.862 300.398 315.163 302.298 313.011C304.197 310.86 308.455 306.16 311.793 302.537C315.13 298.913 319.274 294.327 321 292.345C322.727 290.42 326.525 286.174 329.345 283.003C336.538 275.02 340.624 270.321 344.307 266.018C346.091 263.979 348.853 260.752 350.522 258.884C363.297 244.05 385.338 216.816 394.545 204.304C405.824 189.073 407.148 187.205 416.183 174.069C424.412 162.123 438.223 140.551 443.287 131.832C444.093 130.417 445.014 128.888 445.301 128.435C451.632 118.923 480.98 63.8332 480.98 61.4552C480.98 60.5493 481.613 59.8133 482.189 60.0398C482.419 60.153 484.894 64.6825 487.771 70.1179ZM676.525 587.894C691.602 589.479 714.908 593.159 730.446 596.443C732.69 596.953 735.625 597.575 737.064 597.859C738.502 598.142 740.689 598.595 741.955 598.878C743.221 599.217 745.063 599.614 745.984 599.84C747.595 600.18 752.717 601.482 758.068 603.011C782.296 609.748 801.919 620.393 803.07 627.47C803.358 629.395 803.185 629.735 800.711 632.056C799.272 633.472 797.085 635.17 795.877 635.906C792.194 638.228 782.986 642.814 779.361 644.172C775.735 645.531 774.181 646.154 772.052 647.003C771.304 647.286 769.808 647.796 768.715 648.136C767.621 648.475 765.147 649.212 763.248 649.834C759.449 651.08 741.552 655.496 734.762 656.912C732.402 657.421 727.971 658.327 724.979 658.95C709.671 662.234 703.226 663.479 691.026 665.461C688.034 665.914 684.121 666.593 682.394 666.876C678.826 667.443 673.762 668.235 667.605 669.141C665.303 669.481 661.793 669.99 659.836 670.274C630.199 674.577 590.895 677.86 543.419 679.899C499.798 681.767 484.318 682.107 483.973 681.088C483.858 680.748 484.261 680.465 484.894 680.465C486.217 680.465 507.164 673.557 521.148 668.518C522.759 667.952 525.637 666.876 527.478 666.254C529.262 665.574 531.852 664.555 533.175 663.989C534.556 663.366 535.88 662.913 536.225 662.913C536.571 662.913 537.261 662.687 537.837 662.404C538.757 661.951 539.908 661.441 543.419 660.082C544.224 659.743 545.433 659.29 546.181 658.95C550.037 657.308 557.575 654.194 559.82 653.288C571.789 648.589 591.125 638.964 603.383 631.603C605.051 630.584 607.641 629.055 609.137 628.149C615.352 624.413 626.229 617.109 634.343 611.107C643.953 604.03 659.376 591.178 661.275 588.686C662.713 586.705 664.21 586.648 676.525 587.894ZM827.125 648.872C827.297 653.854 826.376 674.916 825.686 682.73C824.823 692.185 823.211 706.34 822.233 712.454C821.945 714.323 821.427 717.89 821.082 720.381C820.737 722.872 820.161 726.156 819.874 727.741C819.586 729.27 819.068 731.988 818.723 733.686C817.86 738.216 816.076 746.086 815.27 748.973C812.91 757.749 806.926 774.565 803.243 782.661C802.437 784.53 801.344 786.964 800.941 788.04C800.02 790.361 791.848 806.101 790.122 808.989C789.431 810.065 788.223 812.103 787.417 813.518C770.326 843.413 740.919 872.458 704.838 894.992C698.277 899.069 688.782 904.674 688.379 904.674C688.207 904.674 687.343 905.127 686.538 905.75C684.926 906.826 666.224 916.168 661.677 918.149C660.239 918.772 657.879 919.791 656.441 920.414C655.002 921.093 652.412 922.169 650.686 922.792C648.96 923.471 646.83 924.321 645.852 924.774C641.421 926.642 635.091 928.907 623.984 932.474C608.159 937.626 605.742 938.305 599.527 939.777C598.433 940.061 596.477 940.57 595.211 940.853C593.945 941.193 591.643 941.759 590.032 942.099C588.478 942.439 586.234 942.948 585.14 943.175C580.997 944.08 569.833 946.232 566.15 946.855C565.056 947.025 562.697 947.478 560.97 947.761C557.575 948.327 553.72 948.836 543.131 950.195C503.942 955.064 458.364 954.781 417.391 949.346C412.902 948.78 409.737 948.27 402.602 947.138C397.71 946.289 388.56 944.59 384.589 943.741C383.323 943.514 380.734 942.948 378.835 942.552C375.497 941.872 368.707 940.23 360.42 938.079C345.227 934.116 320.655 925.679 308.455 920.187C306.786 919.451 305.29 918.829 305.117 918.829C304.599 918.829 283.825 908.694 278.991 906.033C245.269 887.632 219.488 867.532 198.656 843.243C192.038 835.543 181.737 821.162 177.421 813.518C176.615 812.103 175.407 810.065 174.716 808.989C171.148 803.157 163.322 787.134 159.524 778.019C152.33 760.58 148.36 747.331 145.54 730.855C145.252 729.157 144.619 725.59 144.159 722.929C142.087 711.152 141.051 703.112 139.095 683.862C138.289 675.482 137.714 645.361 138.347 645.361C138.692 645.361 140.188 646.664 141.742 648.249C145.137 651.646 149.626 655.1 154.402 657.931C157.855 659.969 168.156 665.178 168.731 665.178C168.904 665.178 170.515 665.857 172.357 666.65C179.205 669.764 197.39 675.766 208.784 678.766C212.409 679.672 216.323 680.691 217.416 680.974C219.43 681.541 227.889 683.522 232.09 684.428C235.486 685.164 239.226 685.957 242.161 686.636C243.6 686.919 245.556 687.316 246.477 687.486C247.455 687.599 249.7 687.995 251.541 688.335C278.991 693.487 308.8 697.734 339.991 700.848C343.328 701.187 348.393 701.697 351.212 701.98C354.09 702.263 359.499 702.773 363.297 703.056C367.095 703.395 373.195 703.905 376.821 704.245C405.306 706.623 448.754 708.208 485.296 708.208C533.348 708.151 588.478 705.49 625.135 701.414C628.013 701.074 632.789 700.564 635.781 700.281C647.981 699.036 652.067 698.583 660.296 697.45C665.015 696.828 671.288 695.922 674.223 695.469C677.1 695.016 682.049 694.223 685.157 693.77C690.739 692.921 695.4 692.128 700.234 691.222C701.672 690.939 704.492 690.43 706.564 690.09C708.636 689.75 711.34 689.241 712.606 688.958C713.872 688.731 716.347 688.222 718.073 687.825C728.086 685.787 739.884 683.069 747.71 681.031C758.529 678.2 761.464 677.351 770.096 674.577C786.554 669.198 789.259 668.122 801.516 662.177C811.587 657.251 817.227 653.628 822.521 648.645C824.765 646.607 826.664 645.022 826.779 645.135C826.894 645.248 827.067 646.947 827.125 648.872ZM865.105 647.343C874.658 647.853 884.844 649.381 897.619 652.156C899.288 652.552 903.892 653.911 910.855 656.119C917.531 658.214 928.177 663.31 934.449 667.386C943.312 673.161 952.346 683.069 956.202 691.279C964.086 708.151 961.957 729.61 950.102 753.503C945.556 762.675 942.103 767.997 934.622 777.226C930.881 781.925 917.646 795.117 914.308 797.608C913.215 798.401 910.913 800.156 909.244 801.515C894.454 813.179 872.702 824.106 849.28 831.58C843.813 833.335 840.36 834.297 830.462 836.675C825.11 837.977 807.444 840.695 804.566 840.695C803.358 840.695 803.703 839.846 806.868 835.26C810.148 830.391 811.011 829.032 815.96 820.426C817.86 817.198 824.247 804.686 826.549 799.647C838.519 773.602 846.575 745.067 851.237 711.888C853.711 694.28 854.92 679.672 855.38 661.781C855.553 654.137 855.84 647.57 855.956 647.117C856.128 646.664 856.704 646.494 857.509 646.664C858.2 646.89 861.653 647.173 865.105 647.343ZM346.781 962.368C347.299 962.708 349.428 963.331 351.5 963.84C353.572 964.35 356.161 965.029 357.255 965.312C358.348 965.652 360.305 966.162 361.571 966.445C362.837 966.784 364.793 967.237 365.887 967.464C376.245 969.955 398.573 974.145 411.349 975.957C430.167 978.618 434.54 979.127 446.452 980.09C458.077 980.996 508.027 980.996 520.688 980.033C540.081 978.674 548.08 977.599 572.768 973.182C582.896 971.371 593.945 969.162 600.39 967.577C604.016 966.728 615.698 963.67 618.114 962.991C619.381 962.651 620.474 962.481 620.704 962.651C620.877 962.821 620.474 964.067 619.783 965.369C618.632 967.69 615.582 974.541 612.302 982.128C609.252 989.432 604.936 992.263 591.931 995.603C571.444 1000.98 553.777 1003.47 522.414 1005.45C510.905 1006.19 461.127 1006.19 448.754 1005.45C435.518 1004.66 424.009 1003.81 418.254 1003.13C406.803 1001.89 398.804 1000.81 393.509 999.793C392.071 999.51 389.251 999 387.179 998.604C381.367 997.585 368.304 994.188 364.275 992.659C357.082 989.998 356.392 989.036 348.508 971.484C346.609 967.294 344.825 963.614 344.537 963.274C343.213 961.972 344.767 961.349 346.781 962.368Z" fill="#333333"/>
<path d="M0.8673 943.061C-1.8374 945.948 1.15503 949.062 18.8795 962.141C29.1228 969.672 49.034 982.637 57.1481 987.11C58.7594 987.959 61.6943 989.601 63.766 990.734C74.4697 996.622 77.7499 998.377 89.7771 1004.21C97.028 1007.72 103.013 1010.55 103.186 1010.55C103.301 1010.55 105.2 1011.34 107.329 1012.31C109.516 1013.27 112.566 1014.63 114.119 1015.36C115.731 1016.04 118.32 1017.17 119.874 1017.91C122.636 1019.1 124.708 1020.01 128.506 1021.59C129.484 1021.99 131.384 1022.72 132.822 1023.29C134.261 1023.8 136.333 1024.59 137.426 1025.1C138.519 1025.55 140.016 1026.18 140.764 1026.46C141.454 1026.74 142.605 1027.2 143.353 1027.48C169.077 1037.73 196.814 1046.9 226.624 1055C231.86 1056.47 237.788 1058.11 239.859 1058.68C244.521 1059.92 268.115 1065.64 275.251 1067.17C276.517 1067.45 278.703 1067.9 280.142 1068.24C281.581 1068.53 283.365 1068.92 284.17 1069.04C284.976 1069.21 290.27 1070.23 295.967 1071.36C301.665 1072.49 307.88 1073.68 309.779 1074.02C313.98 1074.76 317.375 1075.38 321.576 1076.17C328.712 1077.47 353.687 1081.32 362.722 1082.46C365.599 1082.8 369.742 1083.3 371.929 1083.59C375.727 1084.1 379.525 1084.49 392.531 1085.85C402.947 1086.93 422.398 1088.34 439.259 1089.36C454.509 1090.21 517.81 1090.21 531.334 1089.36C537.031 1088.97 545.721 1088.4 550.612 1088.12C572.883 1086.65 596.419 1083.93 622.258 1079.85C645.334 1076.23 650.111 1075.43 660.527 1073.34C663.404 1072.77 667.605 1071.98 672.209 1071.13C673.82 1070.85 677.56 1070.11 680.38 1069.49C683.258 1068.87 687.516 1067.96 689.875 1067.51C692.235 1067 695.112 1066.38 696.206 1066.09C697.299 1065.75 699.543 1065.24 701.097 1064.9C702.708 1064.56 704.895 1064.05 705.989 1063.77C707.082 1063.49 709.556 1062.87 711.456 1062.47C715.426 1061.51 726.878 1058.56 732.748 1056.92C734.992 1056.3 737.812 1055.56 739.078 1055.17C757.551 1050.13 773.721 1045.14 790.87 1039.14C795.014 1037.73 799.502 1036.14 800.941 1035.69C803.991 1034.61 814.982 1030.54 817.054 1029.69C817.86 1029.35 819.068 1028.84 819.816 1028.61C820.507 1028.33 821.658 1027.88 822.406 1027.59C823.096 1027.37 824.362 1026.86 825.283 1026.46C826.146 1026.12 827.412 1025.61 828.161 1025.33C830.06 1024.59 835.411 1022.44 838.174 1021.25C839.555 1020.63 840.763 1020.18 840.936 1020.18C841.051 1020.18 842.547 1019.55 844.216 1018.82C848.877 1016.78 860.041 1011.74 864.242 1009.87C866.314 1008.91 872.529 1005.91 878.054 1003.19C886.858 998.83 890.771 996.735 904.237 989.318C920.696 980.259 944.923 963.897 958.216 952.913C964.662 947.534 966.158 944.986 963.913 943.004C961.899 941.193 959.885 941.815 951.713 946.628C942.103 952.346 920.926 963.274 908.841 968.766C906.309 969.898 901.705 971.993 898.54 973.408C895.433 974.824 892.786 976.013 892.67 976.013C892.555 976.013 891.117 976.636 889.448 977.372C887.779 978.108 884.729 979.41 882.657 980.259C880.586 981.109 878.169 982.128 877.19 982.524C876.27 982.977 874.313 983.713 872.874 984.223C871.436 984.732 869.709 985.412 869.019 985.695C868.271 985.978 867.12 986.431 866.429 986.714C852.503 992.262 823.442 1002.28 807.271 1007.15C804.912 1007.83 801.516 1008.91 799.79 1009.42C798.064 1009.98 795.474 1010.72 794.035 1011.12C792.597 1011.51 790.813 1012.02 790.007 1012.31C785.231 1013.89 756.515 1021.7 748.458 1023.63C745.236 1024.37 742.128 1025.16 740.804 1025.5C740.171 1025.61 737.409 1026.29 734.647 1026.91C731.827 1027.59 727.396 1028.61 724.691 1029.23C713.067 1031.9 710.19 1032.57 708.29 1032.91C707.197 1033.14 705.356 1033.54 704.262 1033.76C692.925 1036.2 667.375 1041.18 660.527 1042.26C657.016 1042.82 648.212 1044.24 643.147 1045.09C636.357 1046.22 633.077 1046.73 628.588 1047.35C626.056 1047.69 622.431 1048.2 620.532 1048.48C618.633 1048.77 614.604 1049.28 611.612 1049.62C608.619 1049.96 604.361 1050.47 602.117 1050.75C586.982 1052.67 566.725 1054.54 537.664 1056.52C523.45 1057.54 446.683 1057.54 432.066 1056.52C426.196 1056.13 417.564 1055.56 412.787 1055.22C401.854 1054.54 391.725 1053.69 385.453 1053.01C382.748 1052.73 377.857 1052.22 374.519 1051.88C362.952 1050.69 338.379 1047.64 329.632 1046.22C327.906 1045.94 324.511 1045.43 322.151 1045.09C319.792 1044.75 316.569 1044.24 314.958 1043.96C313.404 1043.67 310.124 1043.16 307.765 1042.82C305.405 1042.43 300.974 1041.69 297.982 1041.12C294.989 1040.56 289.004 1039.43 284.746 1038.58C277.092 1037.16 274.215 1036.59 257.584 1033.14C255.915 1032.8 253.498 1032.29 252.232 1032.07C250.966 1031.78 248.664 1031.27 247.053 1030.93C245.499 1030.59 243.082 1030.03 241.758 1029.74C234.68 1028.22 231.63 1027.54 227.487 1026.46C226.221 1026.12 221.559 1024.99 217.128 1023.91C205.907 1021.19 199.174 1019.44 191.808 1017.34C188.355 1016.33 184.96 1015.42 184.327 1015.25C183.694 1015.08 180.183 1014.06 176.558 1012.98C172.932 1011.85 169.077 1010.78 168.098 1010.49C163.495 1009.25 162.171 1008.85 157.567 1007.44C144.389 1003.3 127.585 997.641 117.285 993.848C113.314 992.376 108.653 990.677 106.926 990.054C105.2 989.431 103.013 988.582 102.035 988.186C101.114 987.79 98.7545 986.884 96.8554 986.204C94.9564 985.468 93.1724 984.675 92.8271 984.392C92.5394 984.166 91.9639 983.939 91.5611 983.939C91.1583 983.939 89.547 983.373 88.0507 982.75C84.9432 981.392 84.1376 981.052 75.8508 977.542C70.0386 975.107 65.8952 973.239 55.9972 968.766C53.4651 967.633 46.5019 964.236 40.4595 961.235C29.5256 955.8 21.0087 951.214 7.37009 943.514C4.32011 941.815 2.13333 941.645 0.8673 943.061Z" fill="#333333"/>
<path d="M225.242 440.006C222.825 444.762 220.868 448.952 220.868 449.235C220.868 449.575 220.177 451.443 219.372 453.481C218.509 455.463 217.645 457.841 217.358 458.803C217.127 459.709 216.61 461.521 216.264 462.767C212.984 474.883 211.948 489.717 213.675 500.758C214.48 505.967 214.826 507.439 216.207 512.421C218.681 521.367 225.644 533.71 233.356 542.599C239.283 549.506 252.634 560.207 261.323 564.906C263.971 566.379 264.949 566.379 265.467 565.076C266.157 563.604 265.812 562.302 263.74 558.225C262.647 556.187 261.266 553.186 260.575 551.658C259.885 550.072 258.734 547.525 258.043 545.996C256.202 541.919 252.519 532.294 251.425 528.727C251.08 527.652 250.332 525.217 249.699 523.349C247.627 516.837 246.764 513.667 245.325 507.495C242.736 496.398 241.47 483.093 243.081 484.735C243.254 484.905 243.772 486.716 244.174 488.811C244.635 490.906 245.843 494.813 246.822 497.474C247.8 500.192 249.008 503.419 249.469 504.664C250.447 507.325 256.49 519.442 258.619 523.065C262.474 529.52 268.344 536.88 273.696 541.863C278.53 546.449 279.566 546.279 283.306 540.391C286.069 536.144 288.313 530.709 289.982 524.424C291.133 520.065 291.305 518.026 291.305 509.194C291.305 500.588 291.075 498.267 290.039 494.36C287.45 484.508 282.558 474.6 276.343 466.447C270.013 458.181 259.252 448.159 249.354 441.422C246.074 439.157 237.499 434.231 234.967 433.099C234.046 432.702 232.78 432.136 232.262 431.853C231.687 431.57 230.881 431.344 230.421 431.344C229.903 431.344 227.831 434.854 225.242 440.006Z" fill="#333333"/>
</svg>
