<svg width="70" height="64" viewBox="0 0 70 64" fill="none" xmlns="http://www.w3.org/2000/svg">
<path d="M0.408007 0.73373C-0.054975 0.938175 -0.138312 1.40282 0.232074 1.76525L0.454305 1.99758H5.30635H10.1491L10.4084 2.26707C10.5566 2.42506 10.7325 2.75961 10.8066 3.03839C10.8714 3.30789 11.4733 5.65902 12.14 8.27035C12.8067 10.8724 13.7141 14.413 14.1678 16.1229C14.6123 17.8328 15.492 21.1969 16.1123 23.6038C17.6865 29.7093 19.8995 38.1473 20.0384 38.5934C20.0847 38.7421 19.9644 38.8629 19.3717 39.2532C17.7976 40.2847 16.705 41.7251 16.3994 43.147C15.7975 46.0092 17.5568 48.7507 20.4088 49.364C20.9922 49.4941 23.4645 49.5034 42.4004 49.4476C61.3457 49.4012 63.7624 49.3826 63.9476 49.2525C64.2624 49.048 64.3273 48.6856 64.105 48.3882L63.9198 48.1373L42.6319 48.1652C23.1774 48.1931 21.2977 48.1838 20.7885 48.0444C19.0291 47.5704 17.9458 46.446 17.6957 44.8662C17.4087 43.0262 18.4365 41.307 20.557 40.071L20.9737 39.8387L41.3911 39.8015C57.4473 39.7736 61.8642 39.7364 62.0864 39.6435C62.3735 39.5227 62.9198 39.0488 63.0587 38.7979C63.1698 38.5934 66.031 28.3061 68.4663 19.3755C69.1515 16.8478 69.7812 14.5617 69.8645 14.3108C70.1608 13.3072 69.9664 12.4987 69.3275 12.1455C68.9849 11.9597 71.6979 11.969 37.0669 12.034C24.7331 12.0526 14.6215 12.0526 14.5938 12.0247C14.566 11.9968 14.0011 9.85016 13.3252 7.24812C12.6585 4.63679 12.0381 2.34142 11.9548 2.13697C11.7418 1.61657 11.3436 1.18909 10.7973 0.901005L10.3251 0.650093L5.51006 0.631508C1.6025 0.612919 0.639498 0.631508 0.408007 0.73373ZM68.7071 13.493C68.7071 13.6417 67.7533 17.2102 66.3366 22.3492C62.8272 35.0992 61.9938 38.0265 61.8364 38.1938C61.6697 38.3797 61.5031 38.3797 52.4749 38.4354C41.4097 38.5098 22.1033 38.5191 21.7052 38.454C21.4274 38.4075 21.4089 38.3797 21.1681 37.469C19.9181 32.7109 16.4272 19.3104 15.6031 16.1229C15.2697 14.8219 14.9734 13.6789 14.9456 13.5952C14.8993 13.4373 15.8716 13.428 34.1409 13.4001C44.7246 13.3908 56.827 13.3722 61.0493 13.3536C68.1144 13.335 68.7071 13.3443 68.7071 13.493Z" fill="white"/>
<path d="M51.4007 51.7152C48.845 52.2542 47.0394 54.0756 46.5209 56.6405C46.0116 59.2054 47.3542 61.9375 49.7247 63.127C52.7804 64.6604 56.5027 63.4244 57.9287 60.4042C58.4195 59.3633 58.5491 58.7221 58.5028 57.4862C58.4288 55.7484 57.9287 54.5589 56.762 53.3879C55.6138 52.2449 54.3823 51.7152 52.7804 51.6594C52.2433 51.6409 51.6229 51.6687 51.4007 51.7152ZM53.6508 52.9791C54.5119 53.2021 55.262 53.6389 55.9286 54.3172C56.8454 55.2373 57.3176 56.3896 57.3176 57.6813C57.3176 59.0567 56.8824 60.144 55.9286 61.1104C54.0767 63.0062 51.1692 63.0898 49.2525 61.3056C47.1783 59.3819 47.1042 56.3245 49.0858 54.2987C50.2895 53.0627 52.0303 52.5609 53.6508 52.9791Z" fill="white"/>
<path d="M25.7888 51.7801C23.1961 52.412 21.4089 54.3822 21.0108 57.04C20.8348 58.2295 21.1497 59.7349 21.8164 60.878C22.3719 61.8258 23.5294 62.8202 24.6683 63.322C25.798 63.8146 27.4925 63.9168 28.7055 63.5543C29.8815 63.2105 31.0575 62.402 31.8075 61.4355C32.6594 60.339 33.0576 59.1495 33.0576 57.709C33.0576 55.9713 32.539 54.7167 31.2982 53.4807C30.0297 52.1983 28.8074 51.7058 26.9462 51.7244C26.4091 51.7337 25.8906 51.7522 25.7888 51.7801ZM28.6315 53.1555C30.1963 53.6852 31.4649 55.1535 31.7705 56.789C31.9742 57.8763 31.7242 59.261 31.1408 60.2553C30.789 60.8594 29.9556 61.6493 29.2982 62.0024C26.5388 63.48 23.159 61.9652 22.3627 58.8986C21.9553 57.3187 22.3997 55.6646 23.5757 54.41C24.9091 52.9975 26.7795 52.5328 28.6315 53.1555Z" fill="white"/>
</svg>
