<svg width="100" height="110" viewBox="0 0 100 110" fill="none" xmlns="http://www.w3.org/2000/svg">
<path d="M48.3525 0.0938644C48.3003 0.151001 48.2539 0.219566 48.2539 0.242424C48.2539 0.270996 48.0857 0.625252 47.8826 1.04236C47.6796 1.45375 47.3315 2.16225 47.1111 2.61936C45.6724 5.56767 43.8567 9.05309 43.0793 10.3501C42.9923 10.4987 42.9169 10.6301 42.9169 10.6415C42.9169 10.6529 42.4934 11.3843 42.3484 11.6186C42.3078 11.6814 41.9945 12.1957 41.6522 12.7613C40.7241 14.2869 39.7205 15.7954 38.7691 17.1152C38.5951 17.3609 38.4036 17.6238 38.3514 17.7038C38.2412 17.858 37.9337 18.2809 37.168 19.3036C36.1586 20.6635 34.5401 22.6862 33.1479 24.326C32.7592 24.7774 32.3357 25.2803 32.1965 25.4402C31.628 26.1087 31.2567 26.5316 29.9224 28.0172C29.7136 28.2514 29.3771 28.6285 29.1683 28.8571C28.391 29.7313 27.0393 31.2283 26.7608 31.5311C26.5984 31.7025 26.2852 32.0511 26.0647 32.3025C25.8443 32.5539 25.647 32.771 25.6296 32.7882C25.6006 32.8167 23.8661 34.7766 23.2802 35.4451C22.41 36.4336 20.5769 38.6505 20.2752 39.0733C20.223 39.1533 20.1012 39.3076 20.0142 39.4219C18.3087 41.6617 16.6669 44.2386 15.5183 46.4727C15.031 47.4269 14.5495 48.4154 14.5495 48.4725C14.5495 48.4839 14.4741 48.6611 14.3871 48.8553C14.2305 49.1982 13.9984 49.7581 13.6562 50.638C13.4938 51.0494 12.9368 52.6893 12.8092 53.1293C12.7686 53.2721 12.7164 53.4492 12.6932 53.5292C12.6294 53.7349 12.4264 54.5006 12.2871 55.1005C12.2175 55.3805 12.1421 55.7176 12.1131 55.8433C11.9565 56.489 11.649 58.1345 11.533 58.9573C11.2487 60.8829 11.1385 62.197 11.0747 64.2826C10.9471 68.5851 11.3764 72.6076 12.3451 76.1844C12.6004 77.1157 12.7338 77.5614 12.815 77.71C12.844 77.7671 12.8672 77.8471 12.8672 77.8928C12.8672 77.9328 12.9194 78.0928 12.9775 78.2471C13.0413 78.4013 13.1457 78.6813 13.2153 78.8699C13.4125 79.407 13.5112 79.6355 14.0855 80.904C14.4103 81.6125 15.0484 82.8181 15.4197 83.4123C16.0868 84.4922 16.3131 84.8179 17.16 85.8978C18.3029 87.3606 20.9307 89.8689 22.6943 91.1831C22.8451 91.2916 23.0714 91.4573 23.1932 91.5545C23.3208 91.6459 23.5238 91.8002 23.6399 91.8916C25.0031 92.9087 27.3236 94.2628 28.7796 94.8913C28.9305 94.9599 29.1625 95.0627 29.3017 95.1199C29.4352 95.1827 30.0037 95.4113 30.5606 95.6284C31.8832 96.1484 31.889 96.1541 31.9238 96.2912C31.9412 96.3598 31.9818 96.5026 32.0108 96.6112C32.0398 96.7197 32.1153 96.9883 32.1849 97.2111C32.2487 97.4283 32.3299 97.7139 32.3705 97.8397C32.6025 98.6567 33.0434 99.868 33.2929 100.371C33.757 101.314 34.4937 102.005 35.6365 102.571C36.118 102.805 36.7851 103.056 37.2782 103.188C37.7887 103.325 37.9279 103.359 38.305 103.433C39.7843 103.725 41.8669 103.953 44.9473 104.165C46.2525 104.256 51.8042 104.251 52.9528 104.159C54.9135 104.005 56.1898 103.873 57.3906 103.696C57.582 103.668 57.9359 103.616 58.1738 103.582C59.363 103.416 60.7552 102.999 61.7472 102.519C63.1453 101.845 63.8414 101.108 64.3229 99.7823C64.613 98.9824 64.9204 98.0054 65.1351 97.1826C65.1757 97.0397 65.2279 96.8626 65.2511 96.7826C65.2743 96.7026 65.3265 96.5312 65.3613 96.3941C65.4019 96.2569 65.4599 96.1369 65.5005 96.1255C65.837 96.0227 66.684 95.7084 66.9798 95.577C67.1771 95.4856 67.3627 95.4113 67.3917 95.4113C67.4149 95.4113 67.5135 95.377 67.6063 95.3313C67.6992 95.2856 67.908 95.1942 68.0646 95.1256C69.1436 94.6571 69.4569 94.5028 70.182 94.1085C71.3074 93.4915 72.8795 92.4915 73.8367 91.783C75.3334 90.6746 76.8475 89.4004 77.7524 88.5033L78.2165 88.0405H79.0693C81.9292 88.0405 84.8704 87.5891 87.0922 86.8063C87.3184 86.7263 87.6143 86.6235 87.7593 86.5778C88.0262 86.4921 88.061 86.4749 88.5135 86.2807C88.6585 86.2235 88.8905 86.1207 89.0356 86.0635C90.3872 85.4979 92.4118 84.2751 93.7867 83.1952C95.0049 82.241 96.1535 81.1154 96.8786 80.1612C98.4913 78.0528 99.4369 76.0358 99.8198 73.8989C100.069 72.4819 100.063 71.5734 99.7792 70.0421C99.6922 69.5793 99.3847 68.705 99.1411 68.2137C98.3927 66.7166 96.8728 65.1968 95.0977 64.1854C94.4422 63.8083 93.1021 63.2198 92.3712 62.9855C90.5032 62.3856 88.8093 62.077 86.7615 61.9513L86.1408 61.9171L86.106 61.5342C86.0364 60.7057 85.7173 58.3745 85.6129 57.9003C85.5839 57.7746 85.5317 57.506 85.4969 57.3003C85.4621 57.0946 85.4099 56.8261 85.3809 56.7004C85.3519 56.5747 85.2997 56.329 85.2649 56.1576C85.1952 55.809 85.0038 55.0034 84.911 54.6434C84.8762 54.5177 84.824 54.312 84.7892 54.1863C84.7544 54.0606 84.708 53.8949 84.6847 53.8149C84.6615 53.7349 84.6093 53.5578 84.5687 53.4149C84.5281 53.2721 84.4469 53.0036 84.3831 52.815C84.3251 52.6264 84.2555 52.3922 84.2265 52.3008C83.9944 51.5408 83.2229 49.541 82.8516 48.7411C82.7762 48.5754 82.7124 48.4268 82.7124 48.4097C82.7124 48.3125 81.3607 45.6728 81.0011 45.0728C79.9163 43.2444 79.3767 42.393 78.5994 41.3017C78.0831 40.5761 77.8975 40.3247 77.2594 39.4733C77.1143 39.2847 76.9345 39.0448 76.8533 38.9362C76.598 38.5991 75.5016 37.2335 75.258 36.9592C75.1303 36.8107 74.8809 36.5193 74.7069 36.3021C74.5328 36.0907 74.2312 35.7308 74.0339 35.5079C72.6881 33.9538 71.7657 32.8967 70.9072 31.9368C70.3677 31.3254 69.8166 30.7083 69.6889 30.5598C69.4801 30.3198 68.6389 29.3827 67.6643 28.3028C67.4613 28.08 67.2119 27.8 67.1074 27.6743C66.9972 27.5486 66.7884 27.3144 66.6434 27.1601C66.4983 27.0001 66.3069 26.783 66.2141 26.6744C66.1213 26.5658 65.953 26.3716 65.837 26.2402C65.721 26.1145 65.4309 25.7831 65.1931 25.5031C64.9552 25.2288 64.6536 24.8803 64.526 24.7317C64.1547 24.3032 63.7892 23.8689 63.5978 23.6404C63.505 23.5204 63.1627 23.1147 62.8436 22.7319C62.5246 22.3548 62.1997 21.9605 62.1185 21.8577C62.0373 21.7548 61.724 21.3663 61.4166 20.9892C59.8677 19.0694 57.5298 15.8411 56.3 13.9041C55.5749 12.7671 55.4066 12.4928 55.0528 11.9043C54.8439 11.5557 54.5713 11.0929 54.4437 10.8758C54.316 10.6529 54.1246 10.3215 54.0202 10.133C53.91 9.94444 53.7301 9.62447 53.6257 9.41877C53.5155 9.21307 53.3182 8.8531 53.1906 8.61884C52.8426 7.99033 50.8296 4.02496 49.9942 2.31081C48.8108 -0.106117 48.8862 0.0195847 48.6542 0.00244904C48.5149 -0.0089798 48.4221 0.0195847 48.3525 0.0938644ZM49.1705 7.07612C50.2843 9.21879 51.7519 11.9214 51.9086 12.1328C51.9376 12.1614 52.0246 12.3157 52.1116 12.4756C52.4829 13.1384 53.3298 14.5155 53.8693 15.3325C54.0782 15.6468 54.2754 15.9553 54.3102 16.0182C54.345 16.081 54.6815 16.5839 55.0586 17.1324C57.263 20.3664 59.6066 23.3604 62.6986 26.903C63.8472 28.2171 64.1025 28.5085 64.3867 28.8171C64.5376 28.9714 64.8218 29.2913 65.0248 29.5256C65.605 30.1827 65.9762 30.5998 66.7768 31.4797C67.1887 31.9311 67.763 32.571 68.053 32.8967C68.3489 33.2224 68.7201 33.6395 68.8768 33.8167C69.0392 33.9938 69.3873 34.3937 69.6599 34.7023C69.9326 35.0165 70.2574 35.3879 70.3909 35.5308C70.5185 35.6736 70.6983 35.8793 70.7969 35.9936C70.8898 36.1079 71.203 36.4678 71.4873 36.7878C71.7773 37.1135 72.0732 37.462 72.1544 37.5649C72.2356 37.662 72.7287 38.2677 73.2566 38.9076C74.2486 40.1132 74.295 40.1704 74.9679 41.0503C75.7917 42.1302 76.8011 43.5644 77.3174 44.3872C77.4218 44.5586 77.6364 44.9014 77.7931 45.1471C77.9439 45.3928 78.0715 45.6099 78.0715 45.627C78.0715 45.6442 78.1179 45.7242 78.1759 45.8042C78.4254 46.1584 79.5218 48.2211 79.9453 49.1296C80.3049 49.8952 80.3745 50.0609 80.6762 50.798C81.3027 52.3465 81.6624 53.4321 82.0801 55.0148C82.2077 55.5062 82.2367 55.6319 82.4455 56.6432C82.6892 57.8431 82.7298 58.0945 82.9734 59.8715C82.9966 60.0144 83.0314 60.3458 83.0604 60.6143C83.0894 60.8829 83.1243 61.1457 83.1475 61.1971C83.2171 61.3628 83.0372 61.3171 82.9038 61.1343C82.6486 60.8029 81.3723 59.9629 80.566 59.5973C79.2201 58.9916 78.2281 58.6316 76.8823 58.2659C76.7547 58.2317 76.5864 58.1802 76.5052 58.1517C75.9831 57.986 73.332 57.4032 72.0674 57.1803C71.8759 57.146 71.6033 57.1003 71.4583 57.0718C71.0232 56.9918 69.5845 56.7918 69.3177 56.7689L69.1204 56.7575L69.3351 56.5061C69.6947 56.0833 70.3909 55.0205 70.7215 54.3863C71.0754 53.7063 71.4815 52.7236 71.8063 51.7579C71.9339 51.398 72.137 50.7923 72.2704 50.4152C72.5315 49.6838 72.5489 49.4381 72.3574 49.1525C72.0152 48.6325 71.0348 48.5468 70.24 48.9639C69.7469 49.221 69.6367 49.3696 69.4047 50.0438C68.7898 51.8665 68.3895 52.775 67.6875 53.9235C66.7884 55.4148 65.4251 56.9803 63.8878 58.3059C63.4121 58.7116 62.368 59.5458 62.1417 59.7001C62.0721 59.7458 61.7704 59.9572 61.4688 60.1686C60.9119 60.5572 59.6472 61.3571 59.5892 61.3571C59.5718 61.3571 59.4848 61.4028 59.4036 61.4657C59.3166 61.5228 59.1193 61.6428 58.9569 61.7228C58.8003 61.8085 58.5798 61.9285 58.4696 61.9913C57.7561 62.4084 55.453 63.4712 54.287 63.9283C54.142 63.9855 53.8171 64.1169 53.5619 64.214C52.5815 64.6025 50.2843 65.3796 49.5011 65.5853C49.4083 65.6139 49.0544 65.7167 48.718 65.8139C47.7086 66.111 47.4997 66.1738 46.6006 66.4138C46.0031 66.5738 44.9299 66.8423 44.6282 66.9052C44.4716 66.9395 44.2453 66.9909 44.1351 67.0138C43.497 67.1509 41.194 67.5966 40.2774 67.7508C38.9663 67.9794 38.5023 68.0765 38.0556 68.2194C37.6553 68.3508 37.8583 68.3622 35.4045 68.0994C34.105 67.9622 33.7512 67.928 33.2987 67.8937C32.9854 67.8708 32.823 67.8308 32.8404 67.7908C32.852 67.7566 32.9216 67.7223 33.0028 67.7108C33.0782 67.6994 33.3625 67.6194 33.6351 67.5337C33.9078 67.4423 34.4821 67.2652 34.9114 67.128C35.3407 66.9966 35.7467 66.8652 35.8105 66.8423C35.8744 66.8138 35.9788 66.7795 36.0426 66.7681C36.3907 66.6766 39.5 65.5682 40.1904 65.2882C40.2716 65.2539 40.3934 65.2025 40.4688 65.1796C40.7183 65.0825 40.9155 65.0025 41.0141 64.9511C41.0721 64.9225 41.1418 64.8997 41.1766 64.8997C41.2114 64.8997 41.3622 64.8425 41.513 64.7797C41.9771 64.574 42.1221 64.5111 42.4528 64.3854C42.6268 64.3169 42.9691 64.174 43.2069 64.0597C43.4448 63.9512 43.758 63.814 43.9031 63.7569C44.5586 63.4941 46.9718 62.3285 47.8478 61.8542C48.776 61.3457 48.9036 61.2714 49.826 60.7229C51.4271 59.7801 53.4227 58.4088 55.4066 56.9004C57.3152 55.4491 59.3978 53.2835 60.7901 51.3008C61.3818 50.4609 62.2693 48.8839 62.5188 48.2154C62.5594 48.1068 62.6232 47.9526 62.6522 47.8726C62.687 47.7926 62.7334 47.6783 62.7624 47.6154C62.8842 47.324 63.1627 46.427 63.2671 45.987C63.6152 44.5757 63.6558 44.21 63.65 42.6445C63.6442 41.2331 63.563 40.4218 63.3309 39.5019C63.2961 39.3762 63.2497 39.1819 63.2207 39.0733C63.1279 38.6848 63.0293 38.3477 62.803 37.6735C62.5826 37.0107 62.513 36.8164 62.4028 36.605C62.3737 36.5478 62.3505 36.4793 62.3505 36.445C62.3505 36.4164 62.2751 36.2279 62.1881 36.0336C62.0953 35.8336 61.9851 35.5822 61.9445 35.4736C61.6022 34.6109 60.1345 31.9425 59.2528 30.5884C57.9533 28.5942 57.0019 27.2515 55.2384 24.9374C54.6699 24.1889 54.1478 23.5033 54.084 23.4175C53.8403 23.1033 52.5757 21.5491 52.3785 21.3263C52.2624 21.2006 52.0246 20.9206 51.8506 20.7092C50.2843 18.7951 48.9906 17.3609 48.7064 17.2124C48.4743 17.0924 48.1205 17.1095 47.9464 17.2524C47.7666 17.3838 47.4765 17.9723 47.4185 18.3037C47.3953 18.4294 47.3547 18.7894 47.3257 19.1036C47.2967 19.4179 47.2445 19.8407 47.2097 20.0464C47.1749 20.2521 47.1227 20.5607 47.0937 20.7321C47.0647 20.9035 47.0183 21.172 46.9835 21.332C46.8964 21.7948 46.8036 22.2862 46.7514 22.5605C46.6644 23.0176 46.2177 24.9717 46.0669 25.5317C45.9857 25.8288 45.8986 26.1716 45.8696 26.2859C45.771 26.6858 45.7072 26.9315 45.655 27.1315C45.6202 27.2401 45.5564 27.4858 45.5042 27.6743C45.452 27.8629 45.3881 28.08 45.3591 28.16C45.3301 28.24 45.2489 28.4971 45.1793 28.7314C45.0343 29.1942 44.3324 31.2454 44.1409 31.7597C44.0249 32.0797 43.7987 32.6739 43.5028 33.4567C43.0793 34.588 42.3136 36.3821 41.7045 37.6735C41.0257 39.1019 39.5348 41.9188 39.1926 42.3988C39.1346 42.4788 39.0882 42.5587 39.0882 42.5759C39.0882 42.6559 37.8177 44.6728 37.023 45.8556C35.9614 47.4383 34.7431 49.0439 33.4843 50.5295C32.9796 51.1294 32.1675 52.0836 31.6918 52.6436C30.4735 54.0835 29.8238 54.952 29.0233 56.2147C28.5824 56.9061 28.0951 57.8888 27.7818 58.7002C27.7064 58.8888 27.631 59.0944 27.602 59.1573C27.5788 59.2202 27.5266 59.3859 27.486 59.5287C27.4454 59.6715 27.3932 59.8487 27.3642 59.9287C27.1959 60.4143 27.0277 61.7342 27.0683 62.2142C27.0915 62.4999 27.2597 62.6884 27.4802 62.6884C27.6078 62.6884 27.7528 62.6141 27.9907 62.4256C28.8608 61.7285 30.2589 60.9286 31.2277 60.5629C31.4191 60.4886 31.628 60.4086 31.6918 60.3801C32.2777 60.1286 34.4009 59.5573 36.1296 59.1916C40.26 58.3059 42.5514 57.546 44.5412 56.3975C45.5042 55.8433 45.7362 55.5119 45.3533 55.2319C45.2141 55.1348 45.0865 55.1234 43.8277 55.1291C41.4086 55.1291 38.9489 55.3405 37.1274 55.7005C35.9672 55.929 34.3835 56.3804 33.699 56.6832C33.5539 56.7461 33.3393 56.8375 33.2291 56.8832C32.6258 57.1403 31.5119 57.7289 31.3089 57.906C31.2277 57.9803 31.0827 58.0145 31.0827 57.9631C31.0827 57.906 31.5061 57.2146 31.8716 56.6718C32.2197 56.1576 32.5561 55.7119 33.3451 54.7005C33.5771 54.4034 33.931 53.9806 34.1862 53.6949C34.3139 53.5521 34.6677 53.1578 34.9694 52.815C35.271 52.4722 35.6655 52.0322 35.8396 51.8437C36.205 51.4437 37.2898 50.1981 37.5509 49.8724C37.6495 49.7524 37.9105 49.4381 38.1426 49.1753L38.5545 48.6896L39.1868 48.6211C39.529 48.5811 40.0511 48.5125 40.3354 48.4668C40.6255 48.4211 41.0025 48.3582 41.1766 48.3297C41.3506 48.3011 41.7683 48.2268 42.1047 48.1583C42.4412 48.0897 42.7777 48.0211 42.8589 48.004C43.1199 47.9583 43.555 47.8611 44.1815 47.7012C44.2975 47.6726 44.5644 47.6097 44.7732 47.5583C44.9821 47.5069 45.3475 47.4155 45.5854 47.3526C45.8232 47.2898 46.1017 47.2155 46.1945 47.1926C46.4672 47.1183 48.5962 46.4156 48.95 46.2727C49.1241 46.2041 49.3619 46.1127 49.4721 46.0613C49.5823 46.0156 49.768 45.9356 49.8782 45.8842C51.021 45.3985 52.013 44.8271 52.8368 44.1815C54.0608 43.2215 54.4785 42.3131 53.7707 42.1416C53.6489 42.1131 52.7613 42.4045 51.9666 42.7359C51.7752 42.8159 50.76 43.1473 50.2263 43.3015C49.9884 43.3701 49.7274 43.4501 49.6462 43.4729C49.4837 43.5244 49.3155 43.5644 48.3293 43.8158C47.9638 43.9015 46.9022 44.1472 46.2989 44.2786C46.1597 44.3072 45.9393 44.3529 45.8058 44.3872C45.6666 44.4157 45.1155 44.53 44.5702 44.6443C43.6884 44.8271 43.0039 44.9757 42.3078 45.1299C42.1801 45.1585 41.8785 45.2271 41.6406 45.2785C41.4028 45.3242 41.1127 45.3871 40.9967 45.4099C40.8865 45.4328 40.7589 45.4728 40.7241 45.4956C40.6197 45.5585 40.579 45.4156 40.6719 45.3128C40.7415 45.2328 41.0953 44.6557 41.4666 44.0158C41.5188 43.9186 41.6522 43.7015 41.7567 43.5301C42.36 42.5359 43.6014 40.1818 44.0945 39.1019C44.2395 38.7876 44.4368 38.3591 44.5354 38.142C44.634 37.9306 44.7152 37.742 44.7152 37.7306C44.7152 37.7192 44.7964 37.5363 44.8893 37.3306C44.9879 37.1249 45.0981 36.8507 45.1387 36.725C45.2199 36.4678 45.1155 36.5136 46.3627 36.2107C48.5962 35.6679 50.4989 34.8508 51.7055 33.9081C52.6453 33.1653 53.3356 32.3196 53.6373 31.514C53.8055 31.0797 53.7997 30.954 53.6025 30.7712C53.4053 30.5826 53.2312 30.5769 52.918 30.7483C52.2973 31.0797 50.7832 31.8225 50.3423 32.0168C50.0696 32.1368 49.7448 32.2796 49.6171 32.3311C49.4895 32.3882 49.0718 32.5539 48.689 32.7025C48.3061 32.851 47.9406 32.9882 47.8768 33.0167C47.813 33.0396 47.5404 33.1424 47.2677 33.2453C46.9951 33.3424 46.6992 33.4624 46.6064 33.5081C46.4149 33.6052 46.2757 33.5367 46.3859 33.3995C46.4265 33.3538 46.4904 33.2224 46.5368 33.0967C46.5832 32.9767 46.7166 32.6168 46.8326 32.3025C47.2909 31.0569 47.8478 29.3599 48.1901 28.1314C48.2887 27.7829 48.3931 27.4229 48.4221 27.3315C48.5091 27.0687 48.8688 25.6231 49.0022 24.9888C49.0718 24.6746 49.1531 24.3146 49.1821 24.1889C49.2285 23.9661 49.3155 23.5261 49.4141 23.0176C49.4431 22.8747 49.4837 22.6405 49.5011 22.4862C49.5243 22.3091 49.5649 22.2177 49.6229 22.2177C49.6694 22.2177 49.7042 22.2405 49.7042 22.2691C49.7042 22.2977 49.9768 22.6405 50.3075 23.0347C51.5547 24.5146 52.1174 25.2231 53.4285 26.9658C53.8635 27.5429 54.2754 28.08 54.3334 28.16C54.5365 28.4171 56.3696 31.1083 56.6771 31.5997C57.8547 33.4795 58.342 34.3309 58.9801 35.6165C60.0881 37.8392 60.4942 39.0276 60.8365 41.0332C60.9177 41.5131 60.9235 43.5187 60.8423 44.0329C60.7088 44.89 60.4768 45.8099 60.2099 46.5584C60.0301 47.0612 59.4848 48.3068 59.3978 48.4097C59.3688 48.4439 59.2586 48.6268 59.1541 48.8153C59.0497 49.0039 58.7539 49.4781 58.487 49.8724C57.3094 51.6208 55.9635 53.0493 53.8519 54.792C52.8774 55.5976 50.8064 57.0603 49.7622 57.6774C49.652 57.746 49.3271 57.946 49.0428 58.1231C48.7644 58.3002 48.5207 58.4431 48.5033 58.4431C48.4859 58.4431 48.4047 58.4888 48.3235 58.5459C47.7608 58.9345 44.7906 60.4543 42.9517 61.3C42.1163 61.6828 39.471 62.7627 39.0302 62.8998C38.9489 62.9284 38.6647 63.0255 38.392 63.1284C37.313 63.5226 35.271 64.2026 34.2733 64.4997C33.9368 64.5968 33.6003 64.6997 33.5191 64.7282C33.4379 64.7568 33.1014 64.8597 32.765 64.9568C32.4285 65.0539 32.0921 65.1568 32.0108 65.1796C31.9296 65.2082 31.7498 65.2596 31.6048 65.2996C31.4597 65.3396 31.2799 65.391 31.1987 65.4139C31.1175 65.4368 30.9376 65.4882 30.7926 65.5282C30.6476 65.5682 30.4677 65.6196 30.3865 65.6482C30.1255 65.7339 27.9965 66.3167 27.0625 66.5509C26.0937 66.7966 25.9023 66.8195 25.502 66.7281C25.3628 66.6995 24.9393 66.6195 24.5564 66.5567C24.1736 66.4881 23.7559 66.4138 23.6283 66.3852C23.5006 66.3567 23.083 66.2653 22.7001 66.1795C20.6581 65.7396 19.3355 65.3225 18.0476 64.7282C17.1252 64.2997 16.3479 63.6998 16.3479 63.4084C16.3479 62.8713 17.5255 62.0485 19.3064 61.3457C19.7415 61.1743 20.9656 60.7629 21.3252 60.6657C21.4238 60.6372 21.6095 60.5857 21.7313 60.5515C21.8473 60.5172 22.0388 60.4715 22.149 60.4429C22.2592 60.4143 22.6131 60.3286 22.9321 60.2486C23.2512 60.1686 23.5412 60.1001 23.5819 60.1001C23.6225 60.1001 23.8023 60.0429 23.9879 59.9744C24.5854 59.7572 25.1423 59.1059 25.2526 58.4888C25.328 58.1003 25.1075 57.6774 24.7305 57.4889C24.365 57.3003 22.8161 57.5117 21.1338 57.986C20.8321 58.0717 20.5189 58.1574 20.3216 58.2088C20.049 58.2831 18.5407 58.7802 18.3783 58.8545C18.2971 58.8888 18.1752 58.9402 18.1056 58.963C18.0302 58.9916 17.9142 59.0373 17.8446 59.0659C17.7692 59.0887 17.3225 59.3001 16.841 59.5287C15.8316 60.0087 14.9614 60.5458 14.4799 60.9971C14.2943 61.1743 14.1261 61.3 14.1087 61.2828C14.0855 61.2657 14.1029 61.1686 14.1377 61.0657C14.1725 60.9629 14.2015 60.78 14.2015 60.6543C14.2015 60.5286 14.2247 60.2658 14.2537 60.0772C14.2827 59.883 14.3407 59.5116 14.3755 59.243C14.4161 58.9745 14.5089 58.3859 14.5902 57.9288C14.6714 57.4717 14.7468 57.0203 14.7642 56.9289C14.7758 56.8318 14.8106 56.6489 14.8396 56.5118C14.8744 56.3804 14.9208 56.1633 14.9498 56.0261C15.0542 55.5805 15.1355 55.2148 15.1935 54.9862C15.2283 54.8605 15.2805 54.6663 15.3037 54.5577C15.5821 53.4892 16.2029 51.6608 16.6379 50.6438C16.6786 50.5466 16.7308 50.4209 16.754 50.3581C16.8062 50.2324 16.928 49.941 17.0788 49.5981C17.3515 48.9925 18.123 47.4555 18.4131 46.9412C19.1498 45.6499 19.1324 45.6785 19.5443 45.0042C21.0468 42.5702 23.17 39.7818 25.7457 36.8564C26.1111 36.4393 26.5462 35.9479 26.7028 35.7651C26.8653 35.5822 27.2655 35.1308 27.602 34.7594C27.9385 34.3937 28.3678 33.9138 28.5592 33.7024C28.7506 33.4852 29.1799 33.011 29.5164 32.6453C29.8528 32.2796 30.2821 31.8054 30.4735 31.5883C30.665 31.3711 31.0943 30.8969 31.4307 30.5312C31.7672 30.1655 32.1849 29.7027 32.3589 29.5027C32.5329 29.3085 32.9158 28.8799 33.2001 28.56C33.9252 27.7543 34.3371 27.2801 34.7083 26.8458C34.8882 26.6401 35.1666 26.3144 35.3349 26.1259C36.6227 24.6289 38.8445 21.8805 39.7727 20.6178C40.9097 19.0808 41.0431 18.8922 41.9539 17.5666C42.7835 16.361 44.1757 14.1841 44.6862 13.3041C44.7674 13.1613 44.8603 13.007 44.8893 12.9613C45.5274 12.0014 48.4859 6.44189 48.4859 6.2019C48.4859 6.11049 48.5497 6.03621 48.6078 6.05906C48.631 6.07049 48.8804 6.5276 49.1705 7.07612ZM68.198 59.3287C69.7179 59.4887 72.0674 59.8601 73.6337 60.1915C73.8599 60.2429 74.1558 60.3058 74.3008 60.3343C74.4458 60.3629 74.6663 60.4086 74.7939 60.4372C74.9215 60.4715 75.1071 60.5115 75.2 60.5343C75.3624 60.5686 75.8787 60.7 76.4182 60.8543C78.8605 61.5342 80.8386 62.6084 80.9546 63.3227C80.9837 63.5169 80.9662 63.5512 80.7168 63.7855C80.5718 63.9283 80.3513 64.0997 80.2295 64.174C79.8582 64.4083 78.9301 64.8711 78.5646 65.0082C78.1991 65.1454 78.0425 65.2082 77.8279 65.2939C77.7524 65.3225 77.6016 65.3739 77.4914 65.4082C77.3812 65.4425 77.1317 65.5167 76.9403 65.5796C76.5574 65.7053 74.7533 66.151 74.0687 66.2938C73.8309 66.3452 73.3842 66.4367 73.0826 66.4995C71.5395 66.8309 70.8898 66.9566 69.6599 67.1566C69.3583 67.2023 68.9638 67.2709 68.7898 67.2994C68.4301 67.3566 67.9196 67.4366 67.2989 67.528C67.0668 67.5623 66.713 67.6137 66.5157 67.6423C63.5282 68.0765 59.566 68.4079 54.7801 68.6136C50.3829 68.8022 48.8224 68.8365 48.7876 68.7336C48.776 68.6993 48.8166 68.6708 48.8804 68.6708C49.0138 68.6708 51.1254 67.9737 52.5351 67.4651C52.6975 67.408 52.9876 67.2994 53.1732 67.2366C53.3531 67.168 53.6141 67.0652 53.7475 67.008C53.8867 66.9452 54.0202 66.8995 54.055 66.8995C54.0898 66.8995 54.1594 66.8766 54.2174 66.8481C54.3102 66.8023 54.4263 66.7509 54.7801 66.6138C54.8613 66.5795 54.9832 66.5338 55.0586 66.4995C55.4472 66.3338 56.2072 66.0196 56.4334 65.9281C57.6401 65.4539 59.5892 64.4826 60.8249 63.7398C60.9931 63.6369 61.2541 63.4826 61.405 63.3912C62.0315 63.0141 63.1279 62.277 63.9458 61.6714C64.9146 60.9571 66.4693 59.6601 66.6608 59.4087C66.8058 59.2087 66.9566 59.203 68.198 59.3287ZM83.3795 65.4825C83.3969 65.9853 83.3041 68.1108 83.2345 68.8993C83.1475 69.8535 82.985 71.282 82.8864 71.8991C82.8574 72.0876 82.8052 72.4476 82.7704 72.699C82.7356 72.9504 82.6776 73.2818 82.6486 73.4418C82.6196 73.596 82.5674 73.8703 82.5325 74.0417C82.4455 74.4988 82.2657 75.293 82.1845 75.5844C81.9466 76.4701 81.3433 78.1671 80.972 78.9841C80.8908 79.1727 80.7806 79.4184 80.74 79.527C80.6472 79.7612 79.8234 81.3497 79.6494 81.6411C79.5798 81.7496 79.458 81.9553 79.3767 82.0982C77.6538 85.115 74.6895 88.0462 71.0522 90.3203C70.3909 90.7317 69.4337 91.2974 69.3931 91.2974C69.3757 91.2974 69.2887 91.3431 69.2074 91.4059C69.045 91.5145 67.1596 92.4573 66.7014 92.6572C66.5563 92.7201 66.3185 92.8229 66.1735 92.8858C66.0284 92.9544 65.7674 93.0629 65.5934 93.1258C65.4193 93.1943 65.2047 93.28 65.1061 93.3258C64.6594 93.5143 64.0213 93.7429 62.9016 94.1028C61.3064 94.6228 61.0627 94.6914 60.4362 94.8399C60.326 94.8685 60.1287 94.9199 60.0011 94.9485C59.8735 94.9828 59.6414 95.0399 59.479 95.0742C59.3224 95.1085 59.0961 95.1599 58.9859 95.1827C58.5682 95.2742 57.4428 95.4913 57.0715 95.5541C56.9613 95.5713 56.7235 95.617 56.5494 95.6456C56.2072 95.7027 55.8185 95.7541 54.7511 95.8912C50.8006 96.3826 46.2061 96.3541 42.0757 95.8055C41.6232 95.7484 41.3042 95.697 40.5848 95.5827C40.0918 95.497 39.1694 95.3256 38.7691 95.2399C38.6415 95.217 38.3804 95.1599 38.189 95.1199C37.8525 95.0513 37.168 94.8856 36.3326 94.6685C34.8012 94.2685 32.3241 93.4172 31.0943 92.8629C30.926 92.7887 30.7752 92.7258 30.7578 92.7258C30.7056 92.7258 28.6114 91.703 28.1241 91.4345C24.7247 89.5775 22.1258 87.5491 20.0258 85.0979C19.3587 84.3208 18.3203 82.8695 17.8852 82.0982C17.804 81.9553 17.6821 81.7496 17.6125 81.6411C17.2529 81.0525 16.4639 79.4355 16.081 78.5156C15.3559 76.7558 14.9556 75.4187 14.6714 73.756C14.6424 73.5846 14.5786 73.2246 14.5321 72.9561C14.3233 71.7676 14.2189 70.9563 14.0217 69.0136C13.9404 68.1679 13.8824 65.1282 13.9462 65.1282C13.981 65.1282 14.1319 65.2596 14.2885 65.4196C14.6308 65.7624 15.0833 66.111 15.5647 66.3967C15.9128 66.6024 16.9512 67.128 17.0092 67.128C17.0266 67.128 17.189 67.1966 17.3747 67.2766C18.065 67.5909 19.8982 68.1965 21.0468 68.4993C21.4122 68.5908 21.8067 68.6936 21.9169 68.7222C22.12 68.7793 22.9727 68.9793 23.3962 69.0707C23.7385 69.145 24.1156 69.225 24.4114 69.2936C24.5564 69.3221 24.7537 69.3621 24.8465 69.3793C24.9451 69.3907 25.1713 69.4307 25.357 69.465C28.1241 69.9849 31.1291 70.4135 34.2733 70.7277C34.6097 70.762 35.1202 70.8134 35.4045 70.842C35.6945 70.8706 36.2398 70.922 36.6227 70.9506C37.0056 70.9848 37.6205 71.0363 37.986 71.0705C40.8575 71.3105 45.2373 71.4705 48.921 71.4705C53.7649 71.4648 59.3224 71.1963 63.0177 70.7849C63.3077 70.7506 63.7892 70.6992 64.0909 70.6706C65.3207 70.5449 65.7326 70.4992 66.5621 70.3849C67.0378 70.322 67.6701 70.2306 67.966 70.1849C68.2561 70.1392 68.755 70.0592 69.0682 70.0135C69.6309 69.9278 70.1008 69.8478 70.5881 69.7564C70.7331 69.7278 71.0174 69.6764 71.2262 69.6421C71.4351 69.6078 71.7077 69.5564 71.8353 69.5278C71.963 69.505 72.2124 69.4535 72.3864 69.4136C73.3958 69.2079 74.585 68.9336 75.374 68.7279C76.4646 68.4422 76.7605 68.3565 77.6306 68.0765C79.2897 67.5337 79.5624 67.4252 80.798 66.8252C81.8132 66.3281 82.3817 65.9624 82.9154 65.4596C83.1417 65.2539 83.3331 65.0939 83.3447 65.1054C83.3563 65.1168 83.3737 65.2882 83.3795 65.4825ZM87.2082 65.3282C88.1712 65.3796 89.198 65.5339 90.4858 65.8139C90.6541 65.8539 91.1182 65.991 91.8201 66.2138C92.493 66.4252 93.5662 66.9395 94.1985 67.3509C95.0919 67.9337 96.0027 68.9336 96.3913 69.7621C97.1861 71.4648 96.9715 73.6303 95.7764 76.0415C95.3181 76.9672 94.9701 77.5043 94.2159 78.4356C93.8389 78.9099 92.5046 80.2412 92.1682 80.4926C92.0579 80.5726 91.8259 80.7497 91.6577 80.8868C90.1668 82.0639 87.974 83.1666 85.6129 83.9209C85.0618 84.098 84.7138 84.1951 83.716 84.4351C83.1765 84.5665 81.3955 84.8408 81.1055 84.8408C80.9837 84.8408 81.0185 84.7551 81.3375 84.2923C81.6682 83.8009 81.7552 83.6637 82.2541 82.7952C82.4455 82.4696 83.0894 81.2068 83.3215 80.6983C84.5281 78.0699 85.3403 75.1902 85.8102 71.8419C86.0596 70.0649 86.1814 68.5908 86.2278 66.7852C86.2452 66.0138 86.2742 65.351 86.2859 65.3053C86.3033 65.2596 86.3613 65.2425 86.4425 65.2596C86.5121 65.2825 86.8602 65.3111 87.2082 65.3282ZM34.9578 97.1197C35.01 97.154 35.2246 97.2168 35.4335 97.2683C35.6423 97.3197 35.9034 97.3883 36.0136 97.4168C36.1238 97.4511 36.321 97.5025 36.4487 97.5311C36.5763 97.5654 36.7735 97.6111 36.8838 97.634C37.9279 97.8854 40.1788 98.3082 41.4666 98.491C43.3636 98.7596 43.8045 98.811 45.0053 98.9081C46.1771 98.9996 51.2124 98.9996 52.4887 98.9024C54.4437 98.7653 55.25 98.6567 57.7387 98.211C58.7597 98.0282 59.8735 97.8054 60.5232 97.6454C60.8887 97.5597 62.0663 97.2511 62.3099 97.1826C62.4376 97.1483 62.5478 97.1311 62.571 97.1483C62.5884 97.1654 62.5478 97.2911 62.4782 97.4225C62.3621 97.6568 62.0547 98.3482 61.724 99.1138C61.4166 99.8509 60.9815 100.137 59.6704 100.474C57.6053 101.017 55.8243 101.268 52.6627 101.468C51.5025 101.542 46.4846 101.542 45.2373 101.468C43.9031 101.388 42.7429 101.302 42.1627 101.234C41.0083 101.108 40.202 100.999 39.6683 100.897C39.5232 100.868 39.239 100.817 39.0302 100.777C38.4442 100.674 37.1274 100.331 36.7213 100.177C35.9962 99.908 35.9266 99.8109 35.1318 98.0396C34.9404 97.6168 34.7606 97.2454 34.7315 97.2111C34.5981 97.0797 34.7548 97.0169 34.9578 97.1197Z" fill="#333333"/>
<path d="M0.0874294 95.1713C-0.185222 95.4627 0.116435 95.7769 1.90317 97.0968C2.93577 97.8568 4.94294 99.1652 5.7609 99.6166C5.92333 99.7023 6.21918 99.868 6.42802 99.9823C7.50703 100.577 7.83769 100.754 9.05012 101.342C9.78105 101.696 10.3844 101.982 10.4018 101.982C10.4134 101.982 10.6048 102.062 10.8194 102.159C11.0399 102.256 11.3473 102.394 11.504 102.468C11.6664 102.536 11.9275 102.651 12.0841 102.725C12.3625 102.845 12.5714 102.936 12.9543 103.096C13.0529 103.136 13.2443 103.211 13.3893 103.268C13.5344 103.319 13.7432 103.399 13.8534 103.451C13.9636 103.496 14.1145 103.559 14.1899 103.588C14.2595 103.616 14.3755 103.662 14.4509 103.691C17.044 104.725 19.8401 105.65 22.8451 106.467C23.373 106.616 23.9705 106.782 24.1794 106.839C24.6493 106.965 27.0277 107.542 27.747 107.696C27.8747 107.724 28.0951 107.77 28.2401 107.804C28.3852 107.833 28.565 107.873 28.6462 107.884C28.7274 107.902 29.2611 108.004 29.8354 108.119C30.4097 108.233 31.0363 108.353 31.2277 108.387C31.6512 108.462 31.9934 108.524 32.4169 108.604C33.1362 108.736 35.6539 109.124 36.5647 109.239C36.8547 109.273 37.2724 109.324 37.4929 109.353C37.8757 109.404 38.2586 109.444 39.5697 109.581C40.6197 109.69 42.5804 109.833 44.2801 109.936C45.8174 110.021 52.1986 110.021 53.5619 109.936C54.1362 109.896 55.0122 109.839 55.5053 109.81C57.7503 109.661 60.1229 109.387 62.7276 108.976C65.0539 108.61 65.5353 108.53 66.5853 108.319C66.8754 108.262 67.2989 108.182 67.763 108.096C67.9254 108.067 68.3025 107.993 68.5867 107.93C68.8768 107.867 69.3061 107.776 69.5439 107.73C69.7817 107.679 70.0718 107.616 70.182 107.587C70.2922 107.553 70.5185 107.502 70.6751 107.467C70.8375 107.433 71.058 107.382 71.1682 107.353C71.2784 107.325 71.5279 107.262 71.7193 107.222C72.1196 107.125 73.274 106.827 73.8657 106.662C74.092 106.599 74.3762 106.525 74.5038 106.485C76.366 105.976 77.9961 105.473 79.7248 104.868C80.1425 104.725 80.595 104.565 80.74 104.519C81.0475 104.41 82.1555 103.999 82.3643 103.913C82.4455 103.879 82.5673 103.828 82.6428 103.805C82.7124 103.776 82.8284 103.731 82.9038 103.702C82.9734 103.679 83.1011 103.628 83.1939 103.588C83.2809 103.553 83.4085 103.502 83.4839 103.473C83.6754 103.399 84.2149 103.182 84.4933 103.062C84.6325 102.999 84.7544 102.953 84.7718 102.953C84.7834 102.953 84.9342 102.891 85.1024 102.816C85.5723 102.611 86.6977 102.102 87.1212 101.914C87.33 101.816 87.9566 101.514 88.5135 101.239C89.401 100.799 89.7955 100.588 91.153 99.8395C92.8121 98.9252 95.2543 97.274 96.5944 96.1655C97.2441 95.6227 97.3949 95.3656 97.1687 95.1656C96.9657 94.9827 96.7626 95.0456 95.9389 95.5313C94.9701 96.1083 92.8353 97.2111 91.6171 97.7653C91.3618 97.8796 90.8977 98.091 90.5787 98.2339C90.2654 98.3767 89.9985 98.4967 89.9869 98.4967C89.9753 98.4967 89.8303 98.5596 89.6621 98.6338C89.4939 98.7081 89.1864 98.8395 88.9776 98.9252C88.7687 99.011 88.5251 99.1138 88.4265 99.1538C88.3336 99.1995 88.1364 99.2738 87.9914 99.3252C87.8463 99.3766 87.6723 99.4452 87.6027 99.4738C87.5273 99.5023 87.4113 99.548 87.3416 99.5766C85.9378 100.137 83.0082 101.148 81.3781 101.639C81.1403 101.708 80.798 101.816 80.624 101.868C80.45 101.925 80.1889 101.999 80.0439 102.039C79.8988 102.079 79.719 102.131 79.6378 102.159C79.1563 102.319 76.2616 103.108 75.4494 103.302C75.1245 103.376 74.8113 103.456 74.6779 103.491C74.6141 103.502 74.3356 103.571 74.0571 103.633C73.7729 103.702 73.3262 103.805 73.0536 103.868C71.8817 104.136 71.5917 104.205 71.4002 104.239C71.29 104.262 71.1044 104.302 70.9942 104.325C69.8514 104.57 67.2757 105.073 66.5853 105.182C66.2315 105.239 65.3439 105.382 64.8334 105.468C64.1489 105.582 63.8182 105.633 63.3657 105.696C63.1105 105.73 62.745 105.782 62.5536 105.81C62.3621 105.839 61.9561 105.89 61.6544 105.925C61.3528 105.959 60.9235 106.01 60.6972 106.039C59.1715 106.233 57.1296 106.422 54.2 106.622C52.7671 106.725 45.0285 106.725 43.555 106.622C42.9633 106.582 42.0931 106.525 41.6116 106.49C40.5094 106.422 39.4884 106.336 38.8561 106.267C38.5835 106.239 38.0904 106.187 37.7539 106.153C36.5879 106.033 34.1108 105.725 33.2291 105.582C33.055 105.553 32.7128 105.502 32.4749 105.468C32.2371 105.433 31.9122 105.382 31.7498 105.353C31.5932 105.325 31.2625 105.273 31.0247 105.239C30.7868 105.199 30.3401 105.125 30.0385 105.068C29.7368 105.01 29.1335 104.896 28.7042 104.81C27.9327 104.668 27.6426 104.61 25.9661 104.262C25.7979 104.228 25.5542 104.176 25.4266 104.153C25.299 104.125 25.0669 104.073 24.9045 104.039C24.7479 104.005 24.5042 103.948 24.3708 103.919C23.6573 103.765 23.3498 103.696 22.9321 103.588C22.8045 103.553 22.3346 103.439 21.8879 103.331C20.7567 103.056 20.078 102.879 19.3355 102.668C18.9874 102.565 18.6451 102.474 18.5813 102.456C18.5175 102.439 18.1636 102.336 17.7982 102.228C17.4327 102.114 17.044 102.005 16.9454 101.976C16.4813 101.851 16.3479 101.811 15.8838 101.668C14.5554 101.251 12.8614 100.679 11.823 100.297C11.4228 100.148 10.9529 99.9766 10.7788 99.9137C10.6048 99.8509 10.3844 99.7652 10.2857 99.7252C10.1929 99.6852 9.95509 99.5938 9.76365 99.5252C9.57221 99.4509 9.39238 99.3709 9.35757 99.3424C9.32857 99.3195 9.27056 99.2966 9.22995 99.2966C9.18934 99.2966 9.02691 99.2395 8.87608 99.1767C8.56282 99.0395 8.48161 99.0052 7.64625 98.651C7.06034 98.4053 6.64266 98.2167 5.64488 97.7653C5.38963 97.6511 4.6877 97.3082 4.07858 97.0054C2.97637 96.4569 2.11781 95.9941 0.742953 95.217C0.435495 95.0456 0.215053 95.0284 0.0874294 95.1713Z" fill="#333333"/>
<path d="M22.7058 44.4043C22.4622 44.8842 22.2649 45.307 22.2649 45.3356C22.2649 45.3699 22.1953 45.5584 22.1141 45.7641C22.0271 45.9641 21.9401 46.2041 21.9111 46.3012C21.8879 46.3927 21.8356 46.5755 21.8008 46.7012C21.4702 47.924 21.3658 49.421 21.5398 50.5352C21.621 51.0608 21.6558 51.2094 21.795 51.7122C22.0445 52.615 22.7464 53.8606 23.5238 54.7577C24.1213 55.4547 25.4671 56.5346 26.3431 57.0089C26.6099 57.1574 26.7086 57.1574 26.7608 57.026C26.8304 56.8775 26.7956 56.746 26.5867 56.3347C26.4765 56.129 26.3373 55.8261 26.2677 55.6719C26.1981 55.5119 26.082 55.2547 26.0124 55.1005C25.8268 54.6891 25.4555 53.7177 25.3453 53.3578C25.3105 53.2492 25.2351 53.0035 25.1713 52.815C24.9624 52.1579 24.8754 51.8379 24.7304 51.2151C24.4693 50.0952 24.3417 48.7525 24.5041 48.9182C24.5215 48.9353 24.5738 49.1181 24.6144 49.3296C24.6608 49.541 24.7826 49.9352 24.8812 50.2038C24.9798 50.478 25.1017 50.8037 25.1481 50.9294C25.2467 51.198 25.8558 52.4207 26.0704 52.7864C26.4591 53.4378 27.0508 54.1806 27.5903 54.6834C28.0776 55.1462 28.182 55.129 28.5591 54.5348C28.8376 54.1063 29.0638 53.5578 29.232 52.9235C29.3481 52.4836 29.3655 52.2779 29.3655 51.3865C29.3655 50.518 29.3423 50.2838 29.2378 49.8895C28.9768 48.8953 28.4837 47.8954 27.8572 47.0726C27.2191 46.2384 26.1343 45.227 25.1365 44.5471C24.8058 44.3186 23.9414 43.8215 23.6862 43.7072C23.5934 43.6672 23.4658 43.61 23.4135 43.5815C23.3555 43.5529 23.2743 43.5301 23.2279 43.5301C23.1757 43.5301 22.9669 43.8843 22.7058 44.4043Z" fill="#333333"/>
</svg>
